<?xml version="1.0" encoding="UTF-8"?>
<svg xmlns="http://www.w3.org/2000/svg" viewBox="0 0 4500 2500">
  <g id="_Слой_1" data-name="Слой 1">
    <rect width="4500" height="2500" fill="#dbdce6" stroke-width="0"/>
  </g>
  <g id="_фон_квадраты_син" data-name="фон квадраты син">
    <rect x="1080" y="1460" width="660" height="650" fill="#fff" stroke-width="0"/>
    <rect x="1730" y="1700" width="240" height="110" fill="#fff" stroke-width="0"/>
    <rect x="2620" y="1690" width="1100" height="120" fill="#fff" stroke-width="0"/>
    <rect x="1960" y="1440" width="810" height="600" fill="#fff" stroke-width="0"/>
    <rect x="1740" y="1460" width="220" height="240" fill="#fff" stroke-width="0"/>
    <rect x="1960" y="800" width="790" height="650" fill="#fff" stroke-width="0"/>
    <rect x="2650" y="690" width="100" height="120" fill="#fff" stroke-width="0"/>
    <rect x="3700" y="770" width="130" height="350" fill="#fff" stroke-width="0"/>
    <rect x="3440" y="1030" width="280" height="90" fill="#fff" stroke-width="0"/>
    <rect x="3440" y="1120" width="250" height="60" fill="#fff" stroke-width="0"/>
    <rect x="3440" y="1170" width="100" height="530" fill="#fff" stroke-width="0"/>
    <rect x="2730" y="690" width="280" height="110" fill="#fff" stroke-width="0"/>
  </g>
  <g id="_фон_квадраты" data-name="фон квадраты">
    <rect x="2630" y="1810" width="1200" height="230" fill="#f4f3f4" stroke-width="0"/>
    <rect x="3160" y="1800" width="160" height="20" fill="#f4f3f4" stroke-width="0"/>
    <rect x="3540" y="1450" width="290" height="240" fill="#f4f3f4" stroke-width="0"/>
    <rect x="2770" y="1450" width="670" height="240" fill="#f4f3f4" stroke-width="0"/>
    <rect x="3210" y="1030" width="230" height="420" fill="#f4f3f4" stroke-width="0"/>
    <rect x="3210" y="540" width="490" height="490" fill="#f4f3f4" stroke-width="0"/>
    <rect x="3530" y="1180" width="160" height="270" fill="#f4f3f4" stroke-width="0"/>
    <rect x="2300" y="800" width="370" height="320" fill="#f4f3f4" stroke-width="0"/>
    <rect x="2080" y="800" width="220" height="190" fill="#f4f3f4" stroke-width="0"/>
    <rect x="2630" y="1370" width="120" height="80" fill="#f4f3f4" stroke-width="0"/>
    <rect x="2750" y="1350" width="190" height="100" fill="#f4f3f4" stroke-width="0"/>
    <rect x="2750" y="800" width="260" height="550" fill="#f4f3f4" stroke-width="0"/>
    <rect x="2650" y="510" width="360" height="180" fill="#f4f3f4" stroke-width="0"/>
    <rect x="1610" y="1380" width="50" height="80" fill="#f4f3f4" stroke-width="0"/>
    <rect x="1080" y="1120" width="530" height="340" fill="#f4f3f4" stroke-width="0"/>
    <rect x="2500" y="1880" width="130" height="160" fill="#f4f3f4" stroke-width="0"/>
    <rect x="2020" y="1880" width="80" height="70" fill="#f4f3f4" stroke-width="0"/>
    <rect x="1960" y="1950" width="140" height="90" fill="#f4f3f4" stroke-width="0"/>
    <rect x="1740" y="1810" width="220" height="230" fill="#f4f3f4" stroke-width="0"/>
    <rect x="1080" y="1810" width="530" height="300" fill="#e8f3e7" stroke-width="0"/>
    <rect x="3720" y="1690" width="110" height="120" fill="#eaf2f8" stroke-width="0"/>
    <rect x="1080" y="1460" width="470" height="350" fill="#e8f3e7" stroke-width="0"/>
    <rect x="1740" y="1460" width="220" height="240" fill="#f4f3f4" stroke-width="0"/>
  </g>
  <g id="_Стены" data-name="Стены">
    <path d="m3440,2040v-230,230Z" fill="none" stroke="#979797" stroke-miterlimit="10" stroke-width="4"/>
    <line x1="3570" y1="1810" x2="3570" y2="2040" fill="none" stroke="#979797" stroke-miterlimit="10" stroke-width="4"/>
    <line x1="3440" y1="1810" x2="3440" y2="1780" fill="none" stroke="#979797" stroke-miterlimit="10" stroke-width="4"/>
    <line x1="2630" y1="1780" x2="2630" y2="2040" fill="none" stroke="#979797" stroke-miterlimit="10" stroke-width="4"/>
    <line x1="3040" y1="2040" x2="3040" y2="1810" fill="none" stroke="#979797" stroke-miterlimit="10" stroke-width="4"/>
    <line x1="3830" y1="1690" x2="3700" y2="1690" fill="none" stroke="#979797" stroke-miterlimit="10" stroke-width="4"/>
    <polyline points="3730 1450 3710 1450 3540 1450 3540 1690 3640 1690 3660 1690 3670 1690" fill="none" stroke="#979797" stroke-miterlimit="10" stroke-width="4"/>
    <polyline points="3800 770 3830 770 3830 1120 3690 1120 3690 1450" fill="none" stroke="#979797" stroke-miterlimit="10" stroke-width="4"/>
    <line x1="3460" y1="1450" x2="2480" y2="1450" fill="none" stroke="#979797" stroke-miterlimit="10" stroke-width="4"/>
    <polyline points="3460 1690 3310 1690 3300 1690" fill="none" stroke="#979797" stroke-miterlimit="10" stroke-width="4"/>
    <polyline points="3440 1710 3440 1410 3440 1400" fill="none" stroke="#979797" stroke-miterlimit="10" stroke-width="4"/>
    <polyline points="3440 1350 3440 1270 3440 1260" fill="none" stroke="#979797" stroke-miterlimit="10" stroke-width="4"/>
    <polyline points="3440 1210 3440 1140 3440 1130" fill="none" stroke="#979797" stroke-miterlimit="10" stroke-width="4"/>
    <line x1="3440" y1="1320" x2="3210" y2="1320" fill="none" stroke="#979797" stroke-miterlimit="10" stroke-width="4"/>
    <line x1="3210" y1="1450" x2="3210" y2="1120" fill="none" stroke="#979797" stroke-miterlimit="10" stroke-width="4"/>
    <polyline points="3210 1080 3210 540 3700 540 3700 600" fill="none" stroke="#979797" stroke-miterlimit="10" stroke-width="4"/>
    <line x1="3700" y1="760" x2="3700" y2="1050" fill="none" stroke="#979797" stroke-miterlimit="10" stroke-width="4"/>
    <polyline points="3700 1030 3600 1030 3590 1030" fill="none" stroke="#979797" stroke-miterlimit="10" stroke-width="4"/>
    <polyline points="3210 1030 3520 1030 3540 1030" fill="none" stroke="#979797" stroke-miterlimit="10" stroke-width="4"/>
    <line x1="3440" y1="1080" x2="3440" y2="1030" fill="none" stroke="#979797" stroke-miterlimit="10" stroke-width="4"/>
    <line x1="3440" y1="1180" x2="3210" y2="1180" fill="none" stroke="#979797" stroke-miterlimit="10" stroke-width="4"/>
    <polyline points="3530 1210 3530 1180 3690 1180" fill="none" stroke="#979797" stroke-miterlimit="10" stroke-width="4"/>
    <polyline points="2940 1450 2940 1350 3010 1350 3010 970 2970 970 2970 960" fill="none" stroke="#979797" stroke-miterlimit="10" stroke-width="4"/>
    <polyline points="3010 770 3010 920 2750 920" fill="none" stroke="#979797" stroke-miterlimit="10" stroke-width="4"/>
    <polyline points="3010 800 2750 800 2750 780 2750 760" fill="none" stroke="#979797" stroke-miterlimit="10" stroke-width="4"/>
    <polyline points="3010 1120 2840 1120 2770 1120" fill="none" stroke="#979797" stroke-miterlimit="10" stroke-width="4"/>
    <line x1="2780" y1="1120" x2="2740" y2="1120" fill="none" stroke="#979797" stroke-miterlimit="10" stroke-width="4"/>
    <line x1="2750" y1="1040" x2="2750" y2="890" fill="none" stroke="#979797" stroke-miterlimit="10" stroke-width="4"/>
    <polyline points="3010 690 2730 690 2720 690" fill="none" stroke="#979797" stroke-miterlimit="10" stroke-width="4"/>
    <line x1="2630" y1="1710" x2="2630" y2="1670" fill="none" stroke="#979797" stroke-miterlimit="10" stroke-width="4"/>
    <line x1="2520" y1="1450" x2="2520" y2="1700" fill="none" stroke="#979797" stroke-miterlimit="10" stroke-width="4"/>
    <line x1="3270" y1="1690" x2="2910" y2="1690" fill="none" stroke="#979797" stroke-miterlimit="10" stroke-width="4"/>
    <line x1="2770" y1="1450" x2="2770" y2="1690" fill="none" stroke="#979797" stroke-miterlimit="10" stroke-width="4"/>
    <polyline points="2750 1450 2750 1190 2750 1170" fill="none" stroke="#979797" stroke-miterlimit="10" stroke-width="4"/>
    <line x1="3050" y1="1450" x2="3050" y2="1690" fill="none" stroke="#979797" stroke-miterlimit="10" stroke-width="4"/>
    <line x1="2080" y1="890" x2="2080" y2="930" fill="none" stroke="#979797" stroke-miterlimit="10" stroke-width="4"/>
    <line x1="2390" y1="1450" x2="2340" y2="1450" fill="none" stroke="#979797" stroke-miterlimit="10" stroke-width="4"/>
    <line x1="2260" y1="1450" x2="2210" y2="1450" fill="none" stroke="#979797" stroke-miterlimit="10" stroke-width="4"/>
    <line x1="2120" y1="1450" x2="1960" y2="1450" fill="none" stroke="#979797" stroke-miterlimit="10" stroke-width="4"/>
    <line x1="1960" y1="1460" x2="1930" y2="1460" fill="none" stroke="#979797" stroke-miterlimit="10" stroke-width="4"/>
    <polyline points="1610 1310 1610 1380 1660 1380 1660 1460" fill="none" stroke="#979797" stroke-miterlimit="10" stroke-width="4"/>
    <polyline points="1080 1460 1080 2110 1310 2110" fill="none" stroke="#979797" stroke-miterlimit="10" stroke-width="4"/>
    <line x1="1980" y1="1810" x2="1730" y2="1810" fill="none" stroke="#979797" stroke-miterlimit="10" stroke-width="4"/>
    <line x1="1580" y1="1810" x2="1500" y2="1810" fill="none" stroke="#979797" stroke-miterlimit="10" stroke-width="4"/>
    <line x1="1180" y1="1810" x2="1080" y2="1810" fill="none" stroke="#979797" stroke-miterlimit="10" stroke-width="4"/>
    <polyline points="1380 2110 1740 2110 1740 1790" fill="none" stroke="#979797" stroke-miterlimit="10" stroke-width="4"/>
    <line x1="1740" y1="1730" x2="1740" y2="1460" fill="none" stroke="#979797" stroke-miterlimit="10" stroke-width="4"/>
    <line x1="1550" y1="1810" x2="1550" y2="1460" fill="none" stroke="#979797" stroke-miterlimit="10" stroke-width="4"/>
    <line x1="1610" y1="2110" x2="1610" y2="2030" fill="none" stroke="#979797" stroke-miterlimit="10" stroke-width="4"/>
    <line x1="1980" y1="1700" x2="1740" y2="1700" fill="none" stroke="#979797" stroke-miterlimit="10" stroke-width="4"/>
    <polyline points="1740 2040 2100 2040 2100 1960 2160 1960" fill="none" stroke="#979797" stroke-miterlimit="10" stroke-width="4"/>
    <polyline points="2390 2040 2350 2040 2320 2040" fill="none" stroke="#979797" stroke-miterlimit="10" stroke-width="4"/>
    <polyline points="2210 2040 2250 2040 2280 2040" fill="none" stroke="#979797" stroke-miterlimit="10" stroke-width="4"/>
    <line x1="2300" y1="1040" x2="2300" y2="950" fill="none" stroke="#979797" stroke-miterlimit="10" stroke-width="4"/>
    <polyline points="2750 1370 2630 1370 2630 1390" fill="none" stroke="#979797" stroke-miterlimit="10" stroke-width="4"/>
    <polyline points="2680 1120 2300 1120 2300 1090 2300 1080" fill="none" stroke="#979797" stroke-miterlimit="10" stroke-width="4"/>
    <polyline points="3010 720 3010 510 2650 510 2650 800 2080 800 2080 850" fill="none" stroke="#979797" stroke-miterlimit="10" stroke-width="4"/>
    <line x1="2550" y1="1120" x2="2550" y2="800" fill="none" stroke="#979797" stroke-miterlimit="10" stroke-width="4"/>
    <line x1="2300" y1="900" x2="2080" y2="900" fill="none" stroke="#979797" stroke-miterlimit="10" stroke-width="4"/>
    <line x1="2080" y1="990" x2="2200" y2="990" fill="none" stroke="#979797" stroke-miterlimit="10" stroke-width="4"/>
    <polyline points="2300 990 2250 990 2240 990" fill="none" stroke="#979797" stroke-miterlimit="10" stroke-width="4"/>
    <line x1="2140" y1="990" x2="2140" y2="970" fill="none" stroke="#979797" stroke-miterlimit="10" stroke-width="4"/>
    <line x1="2140" y1="930" x2="2140" y2="900" fill="none" stroke="#979797" stroke-miterlimit="10" stroke-width="4"/>
    <polyline points="2300 960 2410 960 2410 800" fill="none" stroke="#979797" stroke-miterlimit="10" stroke-width="4"/>
    <polyline points="2650 800 2670 800 2670 840" fill="none" stroke="#979797" stroke-miterlimit="10" stroke-width="4"/>
    <polyline points="2670 870 2670 890 2550 890" fill="none" stroke="#979797" stroke-miterlimit="10" stroke-width="4"/>
    <line x1="2670" y1="900" x2="2670" y2="880" fill="none" stroke="#979797" stroke-miterlimit="10" stroke-width="4"/>
    <line x1="2750" y1="1120" x2="2750" y2="1080" fill="none" stroke="#979797" stroke-miterlimit="10" stroke-width="4"/>
    <line x1="2670" y1="1120" x2="2670" y2="1080" fill="none" stroke="#979797" stroke-miterlimit="10" stroke-width="4"/>
    <polyline points="2670 1040 2670 1010 2550 1010" fill="none" stroke="#979797" stroke-miterlimit="10" stroke-width="4"/>
    <polyline points="2550 950 2670 950 2670 930 2670 970" fill="none" stroke="#979797" stroke-miterlimit="10" stroke-width="4"/>
    <line x1="2590" y1="890" x2="2590" y2="900" fill="none" stroke="#979797" stroke-miterlimit="10" stroke-width="4"/>
    <line x1="2590" y1="940" x2="2590" y2="960" fill="none" stroke="#979797" stroke-miterlimit="10" stroke-width="4"/>
    <line x1="2590" y1="1000" x2="2590" y2="1010" fill="none" stroke="#979797" stroke-miterlimit="10" stroke-width="4"/>
    <line x1="2550" y1="900" x2="2470" y2="900" fill="none" stroke="#979797" stroke-miterlimit="10" stroke-width="4"/>
    <line x1="2410" y1="900" x2="2430" y2="900" fill="none" stroke="#979797" stroke-miterlimit="10" stroke-width="4"/>
    <line x1="2410" y1="960" x2="2410" y2="1050" fill="none" stroke="#979797" stroke-miterlimit="10" stroke-width="4"/>
    <line x1="2410" y1="1120" x2="2410" y2="1090" fill="none" stroke="#979797" stroke-miterlimit="10" stroke-width="4"/>
    <line x1="2410" y1="1030" x2="2550" y2="1030" fill="none" stroke="#979797" stroke-miterlimit="10" stroke-width="4"/>
    <line x1="2410" y1="970" x2="2430" y2="970" fill="none" stroke="#979797" stroke-miterlimit="10" stroke-width="4"/>
    <line x1="2550" y1="970" x2="2470" y2="970" fill="none" stroke="#979797" stroke-miterlimit="10" stroke-width="4"/>
    <line x1="2480" y1="950" x2="2480" y2="970" fill="none" stroke="#979797" stroke-miterlimit="10" stroke-width="4"/>
    <line x1="2480" y1="920" x2="2480" y2="900" fill="none" stroke="#979797" stroke-miterlimit="10" stroke-width="4"/>
    <line x1="2750" y1="850" x2="2750" y2="830" fill="none" stroke="#979797" stroke-miterlimit="10" stroke-width="4"/>
    <polyline points="2770 800 2770 840 2750 840" fill="none" stroke="#979797" stroke-miterlimit="10" stroke-width="4"/>
    <line x1="2970" y1="800" x2="2970" y2="780" fill="none" stroke="#979797" stroke-miterlimit="10" stroke-width="4"/>
    <line x1="2970" y1="690" x2="2970" y2="710" fill="none" stroke="#979797" stroke-miterlimit="10" stroke-width="4"/>
    <path d="m2400,1190h150s90,40,0,110h-150s-90-50,0-110Z" fill="none" stroke="#979797" stroke-miterlimit="10" stroke-width="4"/>
    <rect x="2170" y="1100" width="20" height="20" fill="none" stroke="#979797" stroke-miterlimit="10" stroke-width="4"/>
    <rect x="2050" y="1100" width="20" height="20" fill="none" stroke="#979797" stroke-miterlimit="10" stroke-width="4"/>
    <polyline points="2080 800 1960 800 1960 970" fill="none" stroke="#979797" stroke-miterlimit="10" stroke-width="4"/>
    <rect x="2110" y="1680" width="20" height="20" fill="none" stroke="#979797" stroke-miterlimit="10" stroke-width="4"/>
    <rect x="2230" y="1680" width="20" height="20" fill="none" stroke="#979797" stroke-miterlimit="10" stroke-width="4"/>
    <rect x="2350" y="1680" width="20" height="20" fill="none" stroke="#979797" stroke-miterlimit="10" stroke-width="4"/>
    <rect x="2480" y="1680" width="20" height="20" fill="none" stroke="#979797" stroke-miterlimit="10" stroke-width="4"/>
    <rect x="2480" y="1800" width="20" height="20" fill="none" stroke="#979797" stroke-miterlimit="10" stroke-width="4"/>
    <rect x="2350" y="1800" width="20" height="20" fill="none" stroke="#979797" stroke-miterlimit="10" stroke-width="4"/>
    <rect x="2230" y="1800" width="20" height="20" fill="none" stroke="#979797" stroke-miterlimit="10" stroke-width="4"/>
    <rect x="2110" y="1800" width="20" height="20" fill="none" stroke="#979797" stroke-miterlimit="10" stroke-width="4"/>
    <polyline points="2240 2040 2240 1960 2200 1960" fill="none" stroke="#979797" stroke-miterlimit="10" stroke-width="4"/>
    <polyline points="2360 2040 2360 1960 2390 1960" fill="none" stroke="#979797" stroke-miterlimit="10" stroke-width="4"/>
    <line x1="2360" y1="1960" x2="2320" y2="1960" fill="none" stroke="#979797" stroke-miterlimit="10" stroke-width="4"/>
    <line x1="2240" y1="1960" x2="2280" y2="1960" fill="none" stroke="#979797" stroke-miterlimit="10" stroke-width="4"/>
    <line x1="2500" y1="2040" x2="2440" y2="2040" fill="none" stroke="#979797" stroke-miterlimit="10" stroke-width="4"/>
    <line x1="2100" y1="2040" x2="2160" y2="2040" fill="none" stroke="#979797" stroke-miterlimit="10" stroke-width="4"/>
    <line x1="2480" y1="2040" x2="2480" y2="1960" fill="none" stroke="#979797" stroke-miterlimit="10" stroke-width="4"/>
    <line x1="2120" y1="2040" x2="2120" y2="1960" fill="none" stroke="#979797" stroke-miterlimit="10" stroke-width="4"/>
    <polyline points="2100 1960 2100 1880 2070 1880" fill="none" stroke="#979797" stroke-miterlimit="10" stroke-width="4"/>
    <line x1="2070" y1="1950" x2="2100" y2="1950" fill="none" stroke="#979797" stroke-miterlimit="10" stroke-width="4"/>
    <polyline points="1840 2040 1840 1990 1850 1990" fill="none" stroke="#979797" stroke-miterlimit="10" stroke-width="4"/>
    <polyline points="2500 1960 2500 1880 2550 1880" fill="none" stroke="#979797" stroke-miterlimit="10" stroke-width="4"/>
    <line x1="2630" y1="1880" x2="2590" y2="1880" fill="none" stroke="#979797" stroke-miterlimit="10" stroke-width="4"/>
    <polyline points="3830 1810 3820 1810 3660 1810 3650 1810" fill="none" stroke="#979797" stroke-miterlimit="10" stroke-width="4"/>
    <polyline points="3830 1750 3720 1750 3720 1740 3720 1760" fill="none" stroke="#979797" stroke-miterlimit="10" stroke-width="4"/>
    <line x1="3720" y1="1810" x2="3720" y2="1800" fill="none" stroke="#979797" stroke-miterlimit="10" stroke-width="4"/>
    <line x1="3720" y1="1690" x2="3720" y2="1700" fill="none" stroke="#979797" stroke-miterlimit="10" stroke-width="4"/>
    <line x1="3770" y1="1690" x2="3770" y2="1700" fill="none" stroke="#979797" stroke-miterlimit="10" stroke-width="4"/>
    <line x1="3770" y1="1810" x2="3770" y2="1800" fill="none" stroke="#979797" stroke-miterlimit="10" stroke-width="4"/>
    <line x1="3710" y1="1810" x2="3710" y2="1850" fill="none" stroke="#979797" stroke-miterlimit="10" stroke-width="4"/>
    <polyline points="3710 2040 3710 1890 3710 1880" fill="none" stroke="#979797" stroke-miterlimit="10" stroke-width="4"/>
    <line x1="3570" y1="1910" x2="3620" y2="1910" fill="none" stroke="#979797" stroke-miterlimit="10" stroke-width="4"/>
    <line x1="3710" y1="1910" x2="3650" y2="1910" fill="none" stroke="#979797" stroke-miterlimit="10" stroke-width="4"/>
    <polyline points="3610 1830 3610 1820 3610 1810" fill="none" stroke="#979797" stroke-miterlimit="10" stroke-width="4"/>
    <line x1="3610" y1="1910" x2="3610" y2="1880" fill="none" stroke="#979797" stroke-miterlimit="10" stroke-width="4"/>
    <line x1="3620" y1="1810" x2="3520" y2="1810" fill="none" stroke="#979797" stroke-miterlimit="10" stroke-width="4"/>
    <line x1="3480" y1="1810" x2="3400" y2="1810" fill="none" stroke="#979797" stroke-miterlimit="10" stroke-width="4"/>
    <polyline points="3320 2040 3320 1810 3360 1810" fill="none" stroke="#979797" stroke-miterlimit="10" stroke-width="4"/>
    <polyline points="3270 1800 3270 1910 3250 1910" fill="none" stroke="#979797" stroke-miterlimit="10" stroke-width="4"/>
    <polyline points="3220 1910 3160 1910 3160 1870 3160 2040" fill="none" stroke="#979797" stroke-miterlimit="10" stroke-width="4"/>
    <polyline points="3220 1800 3160 1800 3160 1810 3160 1840" fill="none" stroke="#979797" stroke-miterlimit="10" stroke-width="4"/>
    <polyline points="3250 1800 3320 1800 3320 1810" fill="none" stroke="#979797" stroke-miterlimit="10" stroke-width="4"/>
    <line x1="3160" y1="1810" x2="2970" y2="1810" fill="none" stroke="#979797" stroke-miterlimit="10" stroke-width="4"/>
    <polyline points="2930 1810 2920 1810 2620 1810" fill="none" stroke="#979797" stroke-miterlimit="10" stroke-width="4"/>
    <line x1="3170" y1="1690" x2="3170" y2="1650" fill="none" stroke="#979797" stroke-miterlimit="10" stroke-width="4"/>
    <line x1="3170" y1="1450" x2="3170" y2="1510" fill="none" stroke="#979797" stroke-miterlimit="10" stroke-width="4"/>
    <line x1="3170" y1="1520" x2="3170" y2="1500" fill="none" stroke="#979797" stroke-miterlimit="10" stroke-width="4"/>
    <line x1="2870" y1="1690" x2="2630" y2="1690" fill="none" stroke="#979797" stroke-miterlimit="10" stroke-width="4"/>
    <line x1="2830" y1="1590" x2="2830" y2="1690" fill="none" stroke="#979797" stroke-miterlimit="10" stroke-width="4"/>
    <polyline points="2870 1590 2830 1590 2820 1590" fill="none" stroke="#979797" stroke-miterlimit="10" stroke-width="4"/>
    <line x1="2770" y1="1590" x2="2790" y2="1590" fill="none" stroke="#979797" stroke-miterlimit="10" stroke-width="4"/>
    <polyline points="3170 1620 3170 1590 3170 1550" fill="none" stroke="#979797" stroke-miterlimit="10" stroke-width="4"/>
    <polyline points="3050 1590 3080 1590 3090 1590 3090 1580 3130 1580 3130 1590 3170 1590" fill="none" stroke="#979797" stroke-miterlimit="10" stroke-width="4"/>
    <polyline points="2910 1590 2930 1590 2930 1450 2930 1640" fill="none" stroke="#979797" stroke-miterlimit="10" stroke-width="4"/>
    <line x1="2930" y1="1690" x2="2930" y2="1680" fill="none" stroke="#979797" stroke-miterlimit="10" stroke-width="4"/>
    <line x1="2630" y1="1440" x2="2630" y2="1470" fill="none" stroke="#979797" stroke-miterlimit="10" stroke-width="4"/>
    <polyline points="2720 1530 2630 1530 2630 1510" fill="none" stroke="#979797" stroke-miterlimit="10" stroke-width="4"/>
    <polyline points="2720 1610 2630 1610 2630 1630" fill="none" stroke="#979797" stroke-miterlimit="10" stroke-width="4"/>
    <line x1="2630" y1="1590" x2="2630" y2="1610" fill="none" stroke="#979797" stroke-miterlimit="10" stroke-width="4"/>
    <line x1="2630" y1="1550" x2="2630" y2="1530" fill="none" stroke="#979797" stroke-miterlimit="10" stroke-width="4"/>
    <line x1="1840" y1="1460" x2="1840" y2="1480" fill="none" stroke="#979797" stroke-miterlimit="10" stroke-width="4"/>
    <line x1="1840" y1="1700" x2="1840" y2="1520" fill="none" stroke="#979797" stroke-miterlimit="10" stroke-width="4"/>
    <line x1="1960" y1="1940" x2="1960" y2="2040" fill="none" stroke="#979797" stroke-miterlimit="10" stroke-width="4"/>
    <line x1="1960" y1="1890" x2="1960" y2="1780" fill="none" stroke="#979797" stroke-miterlimit="10" stroke-width="4"/>
    <line x1="1960" y1="1730" x2="1960" y2="1520" fill="none" stroke="#979797" stroke-miterlimit="10" stroke-width="4"/>
    <path d="m1960,1480v-380c0-120,120-110,120-110v-20" fill="none" stroke="#979797" stroke-miterlimit="10" stroke-width="4"/>
    <polyline points="1960 1990 1950 1990 1880 1990" fill="none" stroke="#979797" stroke-miterlimit="10" stroke-width="4"/>
    <polyline points="2040 1880 2020 1880 2020 1950 2030 1950" fill="none" stroke="#979797" stroke-miterlimit="10" stroke-width="4"/>
    <line x1="1960" y1="1950" x2="2020" y2="1950" fill="none" stroke="#979797" stroke-miterlimit="10" stroke-width="4"/>
    <polyline points="1610 1260 1610 1240 1610 1120 1080 1120 1080 1460 1870 1460" fill="none" stroke="#979797" stroke-miterlimit="10" stroke-width="4"/>
    <polyline points="3810 1450 3830 1450 3830 2040 2500 2040 2500 1960 2440 1960" fill="none" stroke="#979797" stroke-miterlimit="10" stroke-width="4"/>
    <polyline points="3550 1450 3530 1450 3530 1320 3530 1270 3530 1260" fill="none" stroke="#979797" stroke-miterlimit="10" stroke-width="4"/>
    <line x1="3690" y1="1320" x2="3580" y2="1320" fill="none" stroke="#979797" stroke-miterlimit="10" stroke-width="4"/>
    <line x1="3530" y1="1320" x2="3540" y2="1320" fill="none" stroke="#979797" stroke-miterlimit="10" stroke-width="4"/>
    <polyline points="2300 800 2300 810 2300 910" fill="none" stroke="#979797" stroke-miterlimit="10" stroke-width="4"/>
    <line x1="2970" y1="930" x2="2970" y2="920" fill="none" stroke="#979797" stroke-miterlimit="10" stroke-width="4"/>
    <polyline points="2750 720 2750 710 2750 690" fill="none" stroke="#979797" stroke-miterlimit="10" stroke-width="4"/>
    <polyline points="2680 690 2670 690 2650 690" fill="none" stroke="#979797" stroke-miterlimit="10" stroke-width="4"/>
    <polyline points="1630 1500 1630 1550 1680 1550 1680 1500" fill="none" stroke="#979797" stroke-miterlimit="10" stroke-width="4"/>
    <line x1="1630" y1="1550" x2="1630" y2="1630" fill="none" stroke="#979797" stroke-miterlimit="10" stroke-width="4"/>
  </g>
  <g id="_Названия" data-name="Названия">
    <rect x="2820" y="1910" width="60" height="40" rx="6" ry="6" fill="#fff" stroke-width="0"/>
    <rect x="2530" y="1950" width="60" height="40" rx="6" ry="6" fill="#fff" stroke-width="0"/>
    <rect x="2850" y="1600" width="60" height="40" rx="6" ry="6" fill="#fff" stroke-width="0"/>
    <rect x="3270" y="1560" width="60" height="40" rx="6" ry="6" fill="#fff" stroke-width="0"/>
    <rect x="3610" y="1930" width="60" height="40" rx="6" ry="6" fill="#fff" stroke-width="0"/>
    <rect x="3470" y="1860" width="60" height="40" rx="6" ry="6" fill="#fff" stroke-width="0"/>
    <rect x="3740" y="1930" width="60" height="40" rx="6" ry="6" fill="#fff" stroke-width="0"/>
    <rect x="3190" y="1860" width="60" height="40" rx="6" ry="6" fill="#fff" stroke-width="0"/>
    <rect x="3350" y="1860" width="60" height="40" rx="6" ry="6" fill="#fff" stroke-width="0"/>
    <rect x="3640" y="1560" width="70" height="40" rx="6" ry="6" fill="#fff" stroke-width="0"/>
    <rect x="2840" y="1000" width="60" height="40" rx="6" ry="6" fill="#fff" stroke-width="0"/>
    <rect x="2560" y="840" width="60" height="40" rx="6" ry="6" fill="#fff" stroke-width="0"/>
    <rect x="2790" y="590" width="60" height="40" rx="6" ry="6" fill="#fff" stroke-width="0"/>
    <rect x="2840" y="1220" width="60" height="40" rx="6" ry="6" fill="#fff" stroke-width="0"/>
    <rect x="2420" y="1220" width="110" height="40" rx="6" ry="6" fill="#fff" stroke-width="0"/>
    <rect x="2840" y="850" width="60" height="40" rx="6" ry="6" fill="#fff" stroke-width="0"/>
    <rect x="2180" y="910" width="60" height="40" rx="6" ry="6" fill="#fff" stroke-width="0"/>
    <rect x="2180" y="1250" width="80" height="40" rx="6" ry="6" fill="#fff" stroke-width="0"/>
    <rect x="3390" y="760" width="140" height="40" rx="6" ry="6" fill="#fff" stroke-width="0"/>
    <rect x="2240" y="2070" width="115.35" height="57.68" rx="6" ry="6" fill="#fff" stroke-width="0"/>
    <rect x="1250" y="1910" width="200" height="40" rx="6" ry="6" fill="#fff" stroke-width="0"/>
    <g>
      <path d="m2552.09,1980h-9.22v-1.93h3.43v-12.67h-3.43v-1.73c1.29,0,2.25-.18,2.86-.55.61-.37.96-1.06,1.03-2.09h1.97v17.04h3.35v1.93Z" fill="#010101" stroke-width="0"/>
      <path d="m2567.33,1970.54c0,3.39-.49,5.88-1.48,7.47-.99,1.59-2.51,2.38-4.56,2.38s-3.61-.81-4.58-2.42-1.46-4.08-1.46-7.4.49-5.91,1.48-7.48c.99-1.58,2.51-2.37,4.56-2.37s3.61.82,4.58,2.45,1.46,4.09,1.46,7.38Zm-3.25,5.76c.25-.63.42-1.42.52-2.37s.15-2.09.15-3.39-.05-2.42-.15-3.38-.28-1.75-.53-2.39c-.25-.64-.6-1.13-1.05-1.47-.45-.33-1.02-.5-1.73-.5s-1.28.17-1.73.5c-.45.33-.81.83-1.07,1.49-.25.64-.43,1.46-.52,2.44s-.14,2.09-.14,3.33c0,1.32.04,2.42.12,3.31.08.89.26,1.68.53,2.39.25.65.59,1.15,1.05,1.5.45.35,1.04.53,1.77.53s1.28-.17,1.73-.5c.45-.33.81-.83,1.06-1.49Z" fill="#010101" stroke-width="0"/>
      <path d="m2581.53,1970.54c0,3.39-.49,5.88-1.48,7.47-.99,1.59-2.51,2.38-4.56,2.38s-3.61-.81-4.58-2.42-1.46-4.08-1.46-7.4.49-5.91,1.48-7.48c.99-1.58,2.51-2.37,4.56-2.37s3.61.82,4.58,2.45,1.46,4.09,1.46,7.38Zm-3.25,5.76c.25-.63.42-1.42.52-2.37s.15-2.09.15-3.39-.05-2.42-.15-3.38-.28-1.75-.53-2.39c-.25-.64-.6-1.13-1.05-1.47-.45-.33-1.02-.5-1.73-.5s-1.28.17-1.73.5c-.45.33-.81.83-1.07,1.49-.25.64-.43,1.46-.52,2.44s-.14,2.09-.14,3.33c0,1.32.04,2.42.12,3.31.08.89.26,1.68.53,2.39.25.65.59,1.15,1.05,1.5.45.35,1.04.53,1.77.53s1.28-.17,1.73-.5c.45-.33.81-.83,1.06-1.49Z" fill="#010101" stroke-width="0"/>
    </g>
    <g>
      <path d="m2842.09,1940h-9.22v-1.93h3.43v-12.67h-3.43v-1.73c1.29,0,2.25-.18,2.86-.55.61-.37.96-1.06,1.03-2.09h1.97v17.04h3.35v1.93Z" fill="#010101" stroke-width="0"/>
      <path d="m2857.33,1930.54c0,3.39-.49,5.88-1.48,7.47-.99,1.59-2.51,2.38-4.56,2.38s-3.61-.81-4.58-2.42-1.46-4.08-1.46-7.4.49-5.91,1.48-7.48c.99-1.58,2.51-2.37,4.56-2.37s3.61.82,4.58,2.45,1.46,4.09,1.46,7.38Zm-3.25,5.76c.25-.63.42-1.42.52-2.37s.15-2.09.15-3.39-.05-2.42-.15-3.38-.28-1.75-.53-2.39c-.25-.64-.6-1.13-1.05-1.47-.45-.33-1.02-.5-1.73-.5s-1.28.17-1.73.5c-.45.33-.81.83-1.07,1.49-.25.64-.43,1.46-.52,2.44s-.14,2.09-.14,3.33c0,1.32.04,2.42.12,3.31.08.89.26,1.68.53,2.39.25.65.59,1.15,1.05,1.5.45.35,1.04.53,1.77.53s1.28-.17,1.73-.5c.45-.33.81-.83,1.06-1.49Z" fill="#010101" stroke-width="0"/>
      <path d="m2870.47,1940h-9.22v-1.93h3.43v-12.67h-3.43v-1.73c1.29,0,2.25-.18,2.86-.55.61-.37.96-1.06,1.03-2.09h1.97v17.04h3.35v1.93Z" fill="#010101" stroke-width="0"/>
    </g>
    <g>
      <path d="m3212.09,1890h-9.22v-1.93h3.43v-12.67h-3.43v-1.73c1.29,0,2.25-.18,2.86-.55.61-.37.96-1.06,1.03-2.09h1.97v17.04h3.35v1.93Z" fill="#010101" stroke-width="0"/>
      <path d="m3227.33,1880.54c0,3.39-.49,5.88-1.48,7.47-.99,1.59-2.51,2.38-4.56,2.38s-3.61-.81-4.58-2.42-1.46-4.08-1.46-7.4.49-5.91,1.48-7.48c.99-1.58,2.51-2.37,4.56-2.37s3.61.82,4.58,2.45,1.46,4.09,1.46,7.38Zm-3.25,5.76c.25-.63.42-1.42.52-2.37s.15-2.09.15-3.39-.05-2.42-.15-3.38-.28-1.75-.53-2.39c-.25-.64-.6-1.13-1.05-1.47-.45-.33-1.02-.5-1.73-.5s-1.28.17-1.73.5c-.45.33-.81.83-1.07,1.49-.25.64-.43,1.46-.52,2.44s-.14,2.09-.14,3.33c0,1.32.04,2.42.12,3.31.08.89.26,1.68.53,2.39.25.65.59,1.15,1.05,1.5.45.35,1.04.53,1.77.53s1.28-.17,1.73-.5c.45-.33.81-.83,1.06-1.49Z" fill="#010101" stroke-width="0"/>
      <path d="m3241.64,1873.93l-8.18,16.07h-2.7l8.66-16.68h-9.78v-2.22h12v2.83Z" fill="#010101" stroke-width="0"/>
    </g>
    <g>
      <path d="m2872.09,1630h-9.22v-1.93h3.43v-12.67h-3.43v-1.73c1.29,0,2.25-.18,2.86-.55.61-.37.96-1.06,1.03-2.09h1.97v17.04h3.35v1.93Z" fill="#010101" stroke-width="0"/>
      <path d="m2887.33,1620.54c0,3.39-.49,5.88-1.48,7.47-.99,1.59-2.51,2.38-4.56,2.38s-3.61-.81-4.58-2.42-1.46-4.08-1.46-7.4.49-5.91,1.48-7.48c.99-1.58,2.51-2.37,4.56-2.37s3.61.82,4.58,2.45,1.46,4.09,1.46,7.38Zm-3.25,5.76c.25-.63.42-1.42.52-2.37s.15-2.09.15-3.39-.05-2.42-.15-3.38-.28-1.75-.53-2.39c-.25-.64-.6-1.13-1.05-1.47-.45-.33-1.02-.5-1.73-.5s-1.28.17-1.73.5c-.45.33-.81.83-1.07,1.49-.25.64-.43,1.46-.52,2.44s-.14,2.09-.14,3.33c0,1.32.04,2.42.12,3.31.08.89.26,1.68.53,2.39.25.65.59,1.15,1.05,1.5.45.35,1.04.53,1.77.53s1.28-.17,1.73-.5c.45-.33.81-.83,1.06-1.49Z" fill="#010101" stroke-width="0"/>
      <path d="m2901.44,1630h-11.67v-2.65c.84-.8,1.63-1.56,2.37-2.29s1.47-1.49,2.18-2.27c1.44-1.58,2.42-2.85,2.95-3.8.52-.95.79-1.94.79-2.95,0-.52-.08-.99-.25-1.38-.16-.4-.39-.73-.68-.99-.3-.25-.64-.44-1.03-.57s-.82-.19-1.28-.19-.9.06-1.36.17c-.46.12-.9.26-1.33.43-.36.14-.7.32-1.03.52s-.6.38-.8.52h-.14v-2.69c.52-.26,1.25-.52,2.19-.77.94-.25,1.82-.38,2.66-.38,1.76,0,3.14.47,4.14,1.4,1,.94,1.5,2.2,1.5,3.8,0,.74-.09,1.42-.26,2.04-.17.63-.41,1.21-.72,1.74-.31.55-.69,1.1-1.13,1.64s-.91,1.08-1.4,1.6c-.8.86-1.68,1.76-2.66,2.69-.98.93-1.76,1.67-2.34,2.21h9.29v2.17Z" fill="#010101" stroke-width="0"/>
    </g>
    <g>
      <path d="m3372.09,1890h-9.22v-1.93h3.43v-12.67h-3.43v-1.73c1.29,0,2.25-.18,2.86-.55.61-.37.96-1.06,1.03-2.09h1.97v17.04h3.35v1.93Z" fill="#010101" stroke-width="0"/>
      <path d="m3387.33,1880.54c0,3.39-.49,5.88-1.48,7.47-.99,1.59-2.51,2.38-4.56,2.38s-3.61-.81-4.58-2.42-1.46-4.08-1.46-7.4.49-5.91,1.48-7.48c.99-1.58,2.51-2.37,4.56-2.37s3.61.82,4.58,2.45,1.46,4.09,1.46,7.38Zm-3.25,5.76c.25-.63.42-1.42.52-2.37s.15-2.09.15-3.39-.05-2.42-.15-3.38-.28-1.75-.53-2.39c-.25-.64-.6-1.13-1.05-1.47-.45-.33-1.02-.5-1.73-.5s-1.28.17-1.73.5c-.45.33-.81.83-1.07,1.49-.25.64-.43,1.46-.52,2.44s-.14,2.09-.14,3.33c0,1.32.04,2.42.12,3.31.08.89.26,1.68.53,2.39.25.65.59,1.15,1.05,1.5.45.35,1.04.53,1.77.53s1.28-.17,1.73-.5c.45-.33.81-.83,1.06-1.49Z" fill="#010101" stroke-width="0"/>
      <path d="m3394.87,1872.9c-.46,0-.91.05-1.37.17s-.91.25-1.35.43c-.41.17-.76.35-1.06.53-.3.19-.57.36-.81.52h-.15v-2.68c.55-.3,1.3-.56,2.24-.81.94-.24,1.84-.36,2.7-.36s1.6.09,2.24.26c.64.17,1.22.44,1.73.81.56.41.98.9,1.26,1.47.28.58.42,1.25.42,2.02,0,1.04-.34,1.96-1.03,2.74s-1.51,1.29-2.46,1.5v.18c.4.08.82.21,1.28.39.45.19.87.46,1.26.83s.71.83.95,1.4c.25.57.37,1.27.37,2.09s-.15,1.64-.44,2.36c-.29.71-.71,1.35-1.24,1.9-.55.58-1.21,1.01-1.99,1.31s-1.66.44-2.65.44-1.89-.11-2.82-.34-1.71-.5-2.35-.83v-2.68h.18c.53.39,1.25.76,2.15,1.12s1.79.53,2.69.53c.52,0,1.04-.08,1.55-.25.52-.16.96-.43,1.3-.81.34-.37.6-.78.77-1.23s.27-1.02.27-1.7-.1-1.25-.3-1.69c-.2-.44-.48-.79-.83-1.04s-.78-.43-1.26-.53c-.49-.1-1.01-.15-1.58-.15h-1.08v-2.11h.84c1.14,0,2.07-.27,2.79-.81.72-.54,1.07-1.33,1.07-2.36,0-.47-.09-.88-.28-1.22-.19-.34-.42-.62-.71-.82-.32-.22-.68-.37-1.07-.46s-.8-.13-1.24-.13Z" fill="#010101" stroke-width="0"/>
    </g>
    <g>
      <path d="m3292.09,1590h-9.22v-1.93h3.43v-12.67h-3.43v-1.73c1.29,0,2.25-.18,2.86-.55.61-.37.96-1.06,1.03-2.09h1.97v17.04h3.35v1.93Z" fill="#010101" stroke-width="0"/>
      <path d="m3307.33,1580.54c0,3.39-.49,5.88-1.48,7.47-.99,1.59-2.51,2.38-4.56,2.38s-3.61-.81-4.58-2.42-1.46-4.08-1.46-7.4.49-5.91,1.48-7.48c.99-1.58,2.51-2.37,4.56-2.37s3.61.82,4.58,2.45,1.46,4.09,1.46,7.38Zm-3.25,5.76c.25-.63.42-1.42.52-2.37s.15-2.09.15-3.39-.05-2.42-.15-3.38-.28-1.75-.53-2.39c-.25-.64-.6-1.13-1.05-1.47-.45-.33-1.02-.5-1.73-.5s-1.28.17-1.73.5c-.45.33-.81.83-1.07,1.49-.25.64-.43,1.46-.52,2.44s-.14,2.09-.14,3.33c0,1.32.04,2.42.12,3.31.08.89.26,1.68.53,2.39.25.65.59,1.15,1.05,1.5.45.35,1.04.53,1.77.53s1.28-.17,1.73-.5c.45-.33.81-.83,1.06-1.49Z" fill="#010101" stroke-width="0"/>
      <path d="m3321.93,1583.5h-2.25v6.5h-2.44v-6.5h-8.35v-2.67l8.46-9.74h2.34v10.37h2.25v2.03Zm-4.68-2.03v-7.39l-6.37,7.39h6.37Z" fill="#010101" stroke-width="0"/>
    </g>
    <g>
      <path d="m3672.09,1590h-9.22v-1.93h3.43v-12.67h-3.43v-1.73c1.29,0,2.25-.18,2.86-.55.61-.37.96-1.06,1.03-2.09h1.97v17.04h3.35v1.93Z" fill="#010101" stroke-width="0"/>
      <path d="m3687.33,1580.54c0,3.39-.49,5.88-1.48,7.47-.99,1.59-2.51,2.38-4.56,2.38s-3.61-.81-4.58-2.42-1.46-4.08-1.46-7.4.49-5.91,1.48-7.48c.99-1.58,2.51-2.37,4.56-2.37s3.61.82,4.58,2.45,1.46,4.09,1.46,7.38Zm-3.25,5.76c.25-.63.42-1.42.52-2.37s.15-2.09.15-3.39-.05-2.42-.15-3.38-.28-1.75-.53-2.39c-.25-.64-.6-1.13-1.05-1.47-.45-.33-1.02-.5-1.73-.5s-1.28.17-1.73.5c-.45.33-.81.83-1.07,1.49-.25.64-.43,1.46-.52,2.44s-.14,2.09-.14,3.33c0,1.32.04,2.42.12,3.31.08.89.26,1.68.53,2.39.25.65.59,1.15,1.05,1.5.45.35,1.04.53,1.77.53s1.28-.17,1.73-.5c.45-.33.81-.83,1.06-1.49Z" fill="#010101" stroke-width="0"/>
      <path d="m3695.48,1590.43c-.94,0-1.79-.14-2.56-.42s-1.43-.68-1.97-1.21c-.53-.51-.94-1.11-1.21-1.81-.27-.7-.41-1.44-.41-2.22,0-1.02.27-1.97.82-2.83.55-.86,1.34-1.54,2.38-2.05v-.08c-.93-.54-1.62-1.13-2.07-1.78s-.67-1.45-.67-2.41c0-1.42.54-2.61,1.61-3.55s2.44-1.42,4.09-1.42,3.1.45,4.13,1.35c1.04.9,1.56,2.05,1.56,3.46,0,.85-.25,1.68-.74,2.51-.49.83-1.21,1.48-2.14,1.94v.08c1.1.52,1.93,1.14,2.5,1.88s.85,1.68.85,2.84c0,1.62-.59,2.97-1.76,4.06-1.17,1.09-2.64,1.64-4.4,1.64Zm3.55-5.46c0-.78-.15-1.4-.46-1.85s-.89-.92-1.76-1.4c-.29-.16-.67-.33-1.15-.52-.48-.19-1.02-.41-1.62-.66-.7.47-1.24,1.04-1.61,1.72-.37.68-.56,1.46-.56,2.33,0,1.14.34,2.09,1.03,2.83.69.75,1.56,1.12,2.6,1.12s1.92-.32,2.56-.96c.64-.64.96-1.51.96-2.61Zm-.36-9.47c0-.85-.28-1.55-.85-2.12s-1.35-.85-2.36-.85c-.92,0-1.68.25-2.27.76-.59.51-.88,1.19-.88,2.06,0,.63.15,1.16.45,1.59.3.43.75.82,1.35,1.17.26.14.66.34,1.2.6.54.25,1.03.45,1.47.6.74-.57,1.24-1.15,1.5-1.75.26-.6.39-1.28.39-2.05Z" fill="#010101" stroke-width="0"/>
    </g>
    <g>
      <path d="m3492.09,1890h-9.22v-1.93h3.43v-12.67h-3.43v-1.73c1.29,0,2.25-.18,2.86-.55.61-.37.96-1.06,1.03-2.09h1.97v17.04h3.35v1.93Z" fill="#010101" stroke-width="0"/>
      <path d="m3507.33,1880.54c0,3.39-.49,5.88-1.48,7.47-.99,1.59-2.51,2.38-4.56,2.38s-3.61-.81-4.58-2.42-1.46-4.08-1.46-7.4.49-5.91,1.48-7.48c.99-1.58,2.51-2.37,4.56-2.37s3.61.82,4.58,2.45,1.46,4.09,1.46,7.38Zm-3.25,5.76c.25-.63.42-1.42.52-2.37s.15-2.09.15-3.39-.05-2.42-.15-3.38-.28-1.75-.53-2.39c-.25-.64-.6-1.13-1.05-1.47-.45-.33-1.02-.5-1.73-.5s-1.28.17-1.73.5c-.45.33-.81.83-1.07,1.49-.25.64-.43,1.46-.52,2.44s-.14,2.09-.14,3.33c0,1.32.04,2.42.12,3.31.08.89.26,1.68.53,2.39.25.65.59,1.15,1.05,1.5.45.35,1.04.53,1.77.53s1.28-.17,1.73-.5c.45-.33.81-.83,1.06-1.49Z" fill="#010101" stroke-width="0"/>
      <path d="m3521.22,1883.98c0,.91-.15,1.76-.44,2.54-.29.78-.7,1.45-1.22,2.02-.53.58-1.2,1.03-1.99,1.36-.79.33-1.68.5-2.66.5-.91,0-1.8-.1-2.67-.3-.88-.2-1.64-.46-2.28-.78v-2.68h.18c.19.14.47.31.84.49.36.18.77.35,1.21.51.5.18.96.32,1.37.41.42.1.88.15,1.4.15s1-.09,1.49-.27c.48-.18.9-.48,1.24-.88.31-.37.55-.81.72-1.31.17-.5.25-1.09.25-1.76s-.09-1.22-.27-1.65c-.18-.43-.45-.79-.79-1.07-.36-.32-.81-.55-1.34-.68-.53-.13-1.12-.2-1.77-.2-.69,0-1.38.05-2.07.16-.69.11-1.25.21-1.66.3v-9.74h10.37v2.22h-7.92v5.03c.3-.03.61-.06.9-.08s.57-.03.81-.03c.96,0,1.78.08,2.45.24s1.31.47,1.93.94c.63.47,1.11,1.07,1.44,1.78.33.71.5,1.64.5,2.78Z" fill="#010101" stroke-width="0"/>
    </g>
    <g>
      <path d="m3632.09,1960h-9.22v-1.93h3.43v-12.67h-3.43v-1.73c1.29,0,2.25-.18,2.86-.55.61-.37.96-1.06,1.03-2.09h1.97v17.04h3.35v1.93Z" fill="#010101" stroke-width="0"/>
      <path d="m3647.33,1950.54c0,3.39-.49,5.88-1.48,7.47-.99,1.59-2.51,2.38-4.56,2.38s-3.61-.81-4.58-2.42-1.46-4.08-1.46-7.4.49-5.91,1.48-7.48c.99-1.58,2.51-2.37,4.56-2.37s3.61.82,4.58,2.45,1.46,4.09,1.46,7.38Zm-3.25,5.76c.25-.63.42-1.42.52-2.37s.15-2.09.15-3.39-.05-2.42-.15-3.38-.28-1.75-.53-2.39c-.25-.64-.6-1.13-1.05-1.47-.45-.33-1.02-.5-1.73-.5s-1.28.17-1.73.5c-.45.33-.81.83-1.07,1.49-.25.64-.43,1.46-.52,2.44s-.14,2.09-.14,3.33c0,1.32.04,2.42.12,3.31.08.89.26,1.68.53,2.39.25.65.59,1.15,1.05,1.5.45.35,1.04.53,1.77.53s1.28-.17,1.73-.5c.45-.33.81-.83,1.06-1.49Z" fill="#010101" stroke-width="0"/>
      <path d="m3649.24,1947.24c0-.97.16-1.86.48-2.67.32-.8.75-1.5,1.3-2.08.52-.56,1.17-.99,1.92-1.31.76-.31,1.53-.47,2.3-.47.87,0,1.66.15,2.37.44.71.29,1.32.71,1.83,1.26.65.69,1.16,1.6,1.52,2.73.36,1.13.54,2.55.54,4.27,0,1.57-.18,3.05-.53,4.45-.35,1.4-.87,2.56-1.56,3.49-.73.98-1.6,1.73-2.62,2.25-1.02.52-2.28.77-3.78.77-.34,0-.7-.02-1.08-.06-.38-.04-.74-.11-1.07-.21v-2.42h.13c.21.12.54.23.99.34s.91.17,1.37.17c1.66,0,2.96-.55,3.91-1.64s1.49-2.65,1.61-4.68c-.68.46-1.32.79-1.94,1-.61.21-1.28.32-2,.32s-1.34-.08-1.92-.23-1.16-.45-1.74-.89c-.68-.52-1.19-1.17-1.54-1.96-.35-.79-.52-1.75-.52-2.86Zm9.71,1.62c0-1.29-.12-2.33-.36-3.14-.24-.81-.56-1.43-.98-1.87-.37-.41-.75-.69-1.13-.84s-.8-.23-1.26-.23c-1.04,0-1.87.37-2.49,1.12s-.93,1.82-.93,3.24c0,.8.1,1.45.3,1.97s.53.96.99,1.33c.32.26.69.44,1.09.53.41.09.84.13,1.31.13.54,0,1.13-.09,1.75-.29.63-.19,1.17-.44,1.64-.75,0-.13.02-.29.03-.5.01-.21.02-.44.02-.69Z" fill="#010101" stroke-width="0"/>
    </g>
    <g>
      <path d="m3762.09,1960h-9.22v-1.93h3.43v-12.67h-3.43v-1.73c1.29,0,2.25-.18,2.86-.55.61-.37.96-1.06,1.03-2.09h1.97v17.04h3.35v1.93Z" fill="#010101" stroke-width="0"/>
      <path d="m3776.28,1960h-9.22v-1.93h3.43v-12.67h-3.43v-1.73c1.29,0,2.25-.18,2.86-.55.61-.37.96-1.06,1.03-2.09h1.97v17.04h3.35v1.93Z" fill="#010101" stroke-width="0"/>
      <path d="m3791.53,1950.54c0,3.39-.49,5.88-1.48,7.47-.99,1.59-2.51,2.38-4.56,2.38s-3.61-.81-4.58-2.42-1.46-4.08-1.46-7.4.49-5.91,1.48-7.48c.99-1.58,2.51-2.37,4.56-2.37s3.61.82,4.58,2.45,1.46,4.09,1.46,7.38Zm-3.25,5.76c.25-.63.42-1.42.52-2.37s.15-2.09.15-3.39-.05-2.42-.15-3.38-.28-1.75-.53-2.39c-.25-.64-.6-1.13-1.05-1.47-.45-.33-1.02-.5-1.73-.5s-1.28.17-1.73.5c-.45.33-.81.83-1.07,1.49-.25.64-.43,1.46-.52,2.44s-.14,2.09-.14,3.33c0,1.32.04,2.42.12,3.31.08.89.26,1.68.53,2.39.25.65.59,1.15,1.05,1.5.45.35,1.04.53,1.77.53s1.28-.17,1.73-.5c.45-.33.81-.83,1.06-1.49Z" fill="#010101" stroke-width="0"/>
    </g>
    <g>
      <path d="m2862.09,1250h-9.22v-1.93h3.43v-12.67h-3.43v-1.73c1.29,0,2.25-.18,2.86-.55.61-.37.96-1.06,1.03-2.09h1.97v17.04h3.35v1.93Z" fill="#010101" stroke-width="0"/>
      <path d="m2877.03,1243.98c0,.91-.15,1.76-.44,2.54-.29.78-.7,1.45-1.22,2.02-.53.58-1.2,1.03-1.99,1.36-.79.33-1.68.5-2.66.5-.91,0-1.8-.1-2.67-.3-.88-.2-1.64-.46-2.28-.78v-2.68h.18c.19.14.47.31.84.49.36.18.77.35,1.21.51.5.18.96.32,1.37.41.42.1.88.15,1.4.15s1-.09,1.49-.27c.48-.18.9-.48,1.24-.88.31-.37.55-.81.72-1.31.17-.5.25-1.09.25-1.76s-.09-1.22-.27-1.65c-.18-.43-.45-.79-.79-1.07-.36-.32-.81-.55-1.34-.68-.53-.13-1.12-.2-1.77-.2-.69,0-1.38.05-2.07.16s-1.25.21-1.66.3v-9.74h10.37v2.22h-7.92v5.03c.3-.03.61-.06.9-.08s.57-.03.81-.03c.96,0,1.78.08,2.45.24s1.31.47,1.93.94c.63.47,1.11,1.07,1.44,1.78.33.71.5,1.64.5,2.78Z" fill="#010101" stroke-width="0"/>
      <path d="m2891.22,1243.98c0,.91-.15,1.76-.44,2.54-.29.78-.7,1.45-1.22,2.02-.53.58-1.2,1.03-1.99,1.36-.79.33-1.68.5-2.66.5-.91,0-1.8-.1-2.67-.3-.88-.2-1.64-.46-2.28-.78v-2.68h.18c.19.14.47.31.84.49.36.18.77.35,1.21.51.5.18.96.32,1.37.41.42.1.88.15,1.4.15s1-.09,1.49-.27c.48-.18.9-.48,1.24-.88.31-.37.55-.81.72-1.31.17-.5.25-1.09.25-1.76s-.09-1.22-.27-1.65c-.18-.43-.45-.79-.79-1.07-.36-.32-.81-.55-1.34-.68-.53-.13-1.12-.2-1.77-.2-.69,0-1.38.05-2.07.16s-1.25.21-1.66.3v-9.74h10.37v2.22h-7.92v5.03c.3-.03.61-.06.9-.08s.57-.03.81-.03c.96,0,1.78.08,2.45.24s1.31.47,1.93.94c.63.47,1.11,1.07,1.44,1.78.33.71.5,1.64.5,2.78Z" fill="#010101" stroke-width="0"/>
    </g>
    <g>
      <path d="m2862.55,1030h-9.57v-2h3.56v-13.16h-3.56v-1.79c1.34,0,2.34-.19,2.97-.57.64-.38,1-1.11,1.08-2.17h2.04v17.69h3.48v2Z" fill="#010101" stroke-width="0"/>
      <path d="m2878.07,1023.75c0,.95-.15,1.83-.45,2.64-.3.81-.73,1.51-1.27,2.1-.55.6-1.24,1.07-2.06,1.41-.82.34-1.74.51-2.76.51-.94,0-1.87-.1-2.78-.31-.91-.21-1.7-.48-2.37-.81v-2.78h.18c.2.15.49.32.87.51.38.19.79.37,1.25.53.52.18.99.33,1.42.43s.91.15,1.45.15,1.04-.09,1.54-.28.93-.49,1.29-.92c.33-.39.57-.84.75-1.36.17-.52.26-1.13.26-1.83s-.09-1.27-.28-1.71c-.19-.45-.46-.82-.82-1.11-.38-.33-.84-.57-1.39-.71-.55-.14-1.16-.2-1.84-.2-.71,0-1.43.06-2.15.17s-1.3.21-1.73.31v-10.11h10.77v2.31h-8.23v5.22c.32-.04.63-.06.94-.08.31-.02.59-.03.84-.03,1,0,1.85.08,2.54.25s1.36.49,2,.98c.65.49,1.15,1.11,1.5,1.85.35.74.52,1.7.52,2.89Z" fill="#010101" stroke-width="0"/>
      <path d="m2893.54,1023.25h-2.33v6.75h-2.53v-6.75h-8.67v-2.77l8.78-10.11h2.43v10.77h2.33v2.11Zm-4.86-2.11v-7.67l-6.62,7.67h6.62Z" fill="#010101" stroke-width="0"/>
    </g>
    <g>
      <path d="m2862.55,880h-9.57v-2h3.56v-13.16h-3.56v-1.79c1.34,0,2.34-.19,2.97-.57.64-.38,1-1.11,1.08-2.17h2.04v17.69h3.48v2Z" fill="#010101" stroke-width="0"/>
      <path d="m2878.07,873.75c0,.95-.15,1.83-.45,2.64-.3.81-.73,1.51-1.27,2.1-.55.6-1.24,1.07-2.06,1.41-.82.34-1.74.51-2.76.51-.94,0-1.87-.1-2.78-.31-.91-.21-1.7-.48-2.37-.81v-2.78h.18c.2.15.49.32.87.51.38.19.79.37,1.25.53.52.18.99.33,1.42.43s.91.15,1.45.15,1.04-.09,1.54-.28.93-.49,1.29-.92c.33-.39.57-.84.75-1.36.17-.52.26-1.13.26-1.83s-.09-1.27-.28-1.71c-.19-.45-.46-.82-.82-1.11-.38-.33-.84-.57-1.39-.71-.55-.14-1.16-.2-1.84-.2-.71,0-1.43.06-2.15.17s-1.3.21-1.73.31v-10.11h10.77v2.31h-8.23v5.22c.32-.04.63-.06.94-.08.31-.02.59-.03.84-.03,1,0,1.85.08,2.54.25s1.36.49,2,.98c.65.49,1.15,1.11,1.5,1.85.35.74.52,1.7.52,2.89Z" fill="#010101" stroke-width="0"/>
      <path d="m2886.21,862.24c-.47,0-.95.06-1.42.17s-.94.26-1.4.45c-.42.18-.79.36-1.1.55-.31.19-.59.37-.84.54h-.16v-2.78c.57-.31,1.35-.59,2.33-.84.98-.25,1.91-.38,2.8-.38s1.66.09,2.33.27c.66.18,1.26.46,1.8.84.58.42,1.02.93,1.31,1.53.29.6.44,1.3.44,2.1,0,1.08-.36,2.03-1.07,2.85s-1.56,1.34-2.56,1.56v.18c.41.08.85.22,1.33.41.47.19.91.48,1.31.86s.73.86.99,1.46c.25.59.38,1.32.38,2.17s-.15,1.7-.46,2.45c-.3.74-.73,1.4-1.29,1.97-.57.6-1.26,1.05-2.07,1.36-.81.31-1.73.46-2.76.46s-1.96-.12-2.93-.36-1.78-.52-2.44-.86v-2.78h.18c.55.4,1.3.79,2.23,1.16s1.86.55,2.79.55c.54,0,1.07-.09,1.62-.26.54-.17.99-.45,1.35-.84.35-.39.62-.81.8-1.28s.28-1.05.28-1.77-.1-1.3-.31-1.75c-.21-.46-.49-.82-.86-1.08s-.81-.45-1.31-.55c-.51-.1-1.05-.15-1.64-.15h-1.12v-2.19h.87c1.19,0,2.15-.28,2.89-.84.74-.56,1.11-1.38,1.11-2.45,0-.49-.1-.92-.29-1.27-.19-.36-.44-.64-.74-.85-.33-.23-.7-.39-1.11-.47-.41-.09-.84-.13-1.29-.13Z" fill="#010101" stroke-width="0"/>
    </g>
    <g>
      <path d="m2812.55,620h-9.57v-2h3.56v-13.16h-3.56v-1.79c1.34,0,2.34-.19,2.97-.57.64-.38,1-1.11,1.08-2.17h2.04v17.69h3.48v2Z" fill="#010101" stroke-width="0"/>
      <path d="m2828.07,613.75c0,.95-.15,1.83-.45,2.64-.3.81-.73,1.51-1.27,2.1-.55.6-1.24,1.07-2.06,1.41-.82.34-1.74.51-2.76.51-.94,0-1.87-.1-2.78-.31-.91-.21-1.7-.48-2.37-.81v-2.78h.18c.2.15.49.32.87.51.38.19.79.37,1.25.53.52.18.99.33,1.42.43s.91.15,1.45.15,1.04-.09,1.54-.28.93-.49,1.29-.92c.33-.39.57-.84.75-1.36.17-.52.26-1.13.26-1.83s-.09-1.27-.28-1.71c-.19-.45-.46-.82-.82-1.11-.38-.33-.84-.57-1.39-.71-.55-.14-1.16-.2-1.84-.2-.71,0-1.43.06-2.15.17s-1.3.21-1.73.31v-10.11h10.77v2.31h-8.23v5.22c.32-.04.63-.06.94-.08.31-.02.59-.03.84-.03,1,0,1.85.08,2.54.25s1.36.49,2,.98c.65.49,1.15,1.11,1.5,1.85.35.74.52,1.7.52,2.89Z" fill="#010101" stroke-width="0"/>
      <path d="m2843.03,620h-12.12v-2.76c.87-.83,1.69-1.62,2.46-2.37s1.53-1.54,2.27-2.36c1.49-1.64,2.51-2.96,3.06-3.95.54-.99.82-2.01.82-3.07,0-.54-.09-1.02-.26-1.44-.17-.41-.41-.76-.71-1.03-.31-.26-.66-.46-1.07-.59s-.85-.2-1.33-.2-.94.06-1.42.18c-.48.12-.94.27-1.38.44-.37.15-.72.33-1.07.54s-.62.39-.83.54h-.14v-2.79c.54-.27,1.3-.54,2.27-.8.97-.26,1.89-.39,2.76-.39,1.83,0,3.26.49,4.3,1.46s1.56,2.29,1.56,3.95c0,.76-.09,1.47-.27,2.12-.18.65-.43,1.25-.74,1.81-.33.57-.72,1.14-1.17,1.7s-.94,1.12-1.45,1.66c-.83.9-1.75,1.83-2.76,2.79-1.02.97-1.83,1.73-2.43,2.29h9.65v2.25Z" fill="#010101" stroke-width="0"/>
    </g>
    <g>
      <path d="m2202.42,941.21h-9.57v-1.82h3.56v-11.97h-3.56v-1.63c1.34,0,2.34-.17,2.97-.52.64-.35,1-1.01,1.07-1.97h2.04v16.1h3.48v1.82Z" fill="#010101" stroke-width="0"/>
      <path d="m2217.94,935.53c0,.86-.15,1.66-.45,2.4s-.73,1.37-1.27,1.91c-.55.54-1.24.97-2.06,1.28-.82.31-1.74.47-2.76.47-.94,0-1.87-.09-2.77-.28-.91-.19-1.7-.43-2.37-.74v-2.53h.18c.2.14.49.29.87.46s.8.33,1.25.49c.52.17.99.3,1.42.39.43.09.91.14,1.45.14s1.04-.09,1.54-.26.93-.45,1.29-.83c.33-.35.57-.76.75-1.24s.26-1.03.26-1.67-.09-1.15-.28-1.56c-.19-.41-.46-.74-.82-1.01-.38-.3-.84-.52-1.39-.64-.55-.12-1.16-.19-1.84-.19-.71,0-1.43.05-2.15.15-.72.1-1.3.19-1.73.28v-9.2h10.77v2.1h-8.23v4.75c.32-.03.63-.06.94-.07.31-.02.59-.02.84-.02,1,0,1.85.08,2.54.23s1.36.45,2,.89c.65.45,1.15,1.01,1.5,1.68.35.67.52,1.55.52,2.63Z" fill="#010101" stroke-width="0"/>
      <path d="m2233,932.28c0,3.21-.51,5.56-1.54,7.06-1.02,1.5-2.6,2.25-4.74,2.25s-3.75-.76-4.76-2.29-1.52-3.86-1.52-6.99.51-5.58,1.54-7.07c1.02-1.49,2.6-2.24,4.74-2.24s3.75.77,4.76,2.31,1.52,3.87,1.52,6.97Zm-3.38,5.45c.25-.59.44-1.34.54-2.24s.16-1.97.16-3.2-.05-2.29-.16-3.19c-.11-.9-.29-1.66-.55-2.25-.26-.61-.63-1.07-1.09-1.39s-1.06-.47-1.8-.47-1.33.16-1.8.47c-.47.32-.84.79-1.11,1.41-.26.61-.44,1.38-.54,2.3s-.15,1.98-.15,3.14c0,1.25.04,2.29.13,3.13.08.84.27,1.59.55,2.26.25.62.62,1.09,1.09,1.42.47.33,1.08.5,1.84.5s1.33-.16,1.8-.47c.47-.32.84-.79,1.1-1.41Z" fill="#010101" stroke-width="0"/>
    </g>
    <g>
      <path d="m2582.42,870.19h-9.57v-2h3.56v-13.16h-3.56v-1.79c1.34,0,2.34-.19,2.97-.57.64-.38,1-1.11,1.08-2.17h2.04v17.69h3.48v2Z" fill="#010101" stroke-width="0"/>
      <path d="m2597.94,863.94c0,.95-.15,1.83-.45,2.64-.3.81-.73,1.51-1.27,2.1-.55.6-1.24,1.07-2.06,1.41-.82.34-1.74.51-2.76.51-.94,0-1.87-.1-2.78-.31-.91-.21-1.7-.48-2.37-.81v-2.78h.18c.2.15.49.32.87.51.38.19.79.37,1.25.53.52.18.99.33,1.42.43s.91.15,1.45.15,1.04-.09,1.54-.28.93-.49,1.29-.92c.33-.39.57-.84.75-1.36.17-.52.26-1.13.26-1.83s-.09-1.27-.28-1.71c-.19-.45-.46-.82-.82-1.11-.38-.33-.84-.57-1.39-.71-.55-.14-1.16-.2-1.84-.2-.71,0-1.43.06-2.15.17s-1.3.21-1.73.31v-10.11h10.77v2.31h-8.23v5.22c.32-.04.63-.06.94-.08.31-.02.59-.03.84-.03,1,0,1.85.08,2.54.25s1.36.49,2,.98c.65.49,1.15,1.11,1.5,1.85.35.74.52,1.7.52,2.89Z" fill="#010101" stroke-width="0"/>
      <path d="m2611.9,870.19h-9.57v-2h3.56v-13.16h-3.56v-1.79c1.34,0,2.34-.19,2.97-.57.64-.38,1-1.11,1.08-2.17h2.04v17.69h3.48v2Z" fill="#010101" stroke-width="0"/>
    </g>
    <g>
      <path d="m2449.21,1240.3c0,1.22-.18,2.3-.55,3.24-.37.94-.88,1.73-1.54,2.37-.71.7-1.59,1.25-2.62,1.63-1.04.38-2.11.59-3.22.61v2.39h-2.6v-2.39c-1.1-.04-2.17-.23-3.2-.59-1.04-.36-1.92-.9-2.65-1.62-.66-.64-1.17-1.44-1.54-2.39-.36-.95-.55-2.03-.55-3.24,0-1.14.18-2.17.53-3.08.35-.91.84-1.69,1.48-2.35.68-.7,1.52-1.26,2.54-1.66s2.15-.62,3.39-.66v-2.18h2.6v2.18c1.24.03,2.37.24,3.4.65,1.03.41,1.88.96,2.56,1.65.63.65,1.12,1.43,1.46,2.33s.51,1.94.51,3.11Zm-10.53,5.87v-11.6c-.83,0-1.56.13-2.16.37s-1.14.59-1.6,1.05c-.48.49-.85,1.1-1.09,1.83s-.37,1.52-.37,2.37c0,1.04.13,1.94.38,2.7.25.76.65,1.4,1.19,1.92.4.39.92.71,1.54.96.62.25,1.33.39,2.12.4Zm7.82-5.97c0-.87-.12-1.66-.37-2.38-.25-.72-.61-1.32-1.09-1.83-.46-.47-.99-.83-1.59-1.05-.61-.23-1.33-.35-2.16-.37v11.6c.79-.02,1.5-.15,2.12-.39.62-.24,1.13-.56,1.54-.97.54-.53.93-1.17,1.19-1.92s.38-1.65.38-2.69Z" fill="#010101" stroke-width="0"/>
      <path d="m2463.99,1242.96c0,2.48-.6,4.39-1.79,5.74-1.2,1.35-2.79,2.02-4.77,2.02s-3.66-.7-4.83-2.09c-1.17-1.39-1.76-3.29-1.76-5.68s.6-4.37,1.81-5.73c1.21-1.36,2.8-2.04,4.78-2.04s3.58.68,4.77,2.04c1.2,1.36,1.79,3.27,1.79,5.74Zm-2.56,0c0-1.91-.35-3.32-1.04-4.25-.69-.93-1.68-1.39-2.97-1.39s-2.29.46-2.99,1.39c-.7.93-1.05,2.34-1.05,4.25s.35,3.25,1.05,4.2c.7.95,1.69,1.43,2.99,1.43s2.26-.47,2.96-1.4c.7-.94,1.05-2.34,1.05-4.23Z" fill="#010101" stroke-width="0"/>
      <path d="m2478.17,1250.32h-2.48v-6.63h-6.67v6.63h-2.48v-14.73h2.48v5.96h6.67v-5.96h2.48v14.73Z" fill="#010101" stroke-width="0"/>
      <path d="m2492.5,1237.77h-5.01v12.55h-2.48v-12.55h-5.01v-2.18h12.5v2.18Z" fill="#010101" stroke-width="0"/>
      <path d="m2502.57,1248.75c-.2.15-.47.36-.81.63-.34.27-.67.48-.98.64-.44.23-.86.4-1.27.53-.41.12-.98.18-1.72.18-.61,0-1.18-.11-1.73-.34s-1.02-.55-1.44-.96c-.4-.4-.71-.9-.95-1.5-.24-.59-.36-1.22-.36-1.88,0-1.02.21-1.89.65-2.6s1.11-1.29,2.04-1.71c.83-.38,1.8-.64,2.93-.78,1.12-.14,2.34-.25,3.64-.32v-.47c0-.58-.09-1.05-.26-1.4-.18-.36-.42-.63-.74-.82-.32-.2-.7-.34-1.16-.4-.46-.07-.93-.1-1.41-.1-.57,0-1.24.09-2.02.26-.77.17-1.55.42-2.32.75h-.14v-2.52c.46-.13,1.11-.28,1.96-.44s1.7-.24,2.53-.24c1.01,0,1.86.08,2.56.24s1.32.44,1.87.86c.54.4.94.93,1.2,1.57s.39,1.42.39,2.35v10.07h-2.46v-1.57Zm0-2.06v-4.09c-.59.05-1.33.13-2.23.22-.9.09-1.63.22-2.18.39-.66.2-1.21.51-1.63.93-.43.42-.65,1-.65,1.75,0,.84.24,1.48.71,1.91s1.17.65,2.08.65c.78,0,1.49-.17,2.12-.51.63-.34,1.23-.75,1.78-1.25Z" fill="#010101" stroke-width="0"/>
      <path d="m2520.14,1250.32h-2.48v-6.63h-6.67v6.63h-2.48v-14.73h2.48v5.96h6.67v-5.96h2.48v14.73Z" fill="#010101" stroke-width="0"/>
    </g>
    <g>
      <path d="m2205.44,1280.32h-2.99l-4.79-7.86-4.86,7.86h-2.82l6.24-9.82-6.05-9.81h2.98l4.69,7.71,4.76-7.71h2.83l-6.14,9.68,6.16,9.95Z" fill="#010101" stroke-width="0"/>
      <path d="m2219.46,1272.96c0,2.48-.6,4.39-1.79,5.74-1.2,1.35-2.79,2.02-4.77,2.02s-3.66-.7-4.83-2.09c-1.17-1.39-1.76-3.29-1.76-5.68s.6-4.37,1.81-5.74c1.21-1.36,2.8-2.04,4.78-2.04s3.58.68,4.77,2.04c1.2,1.36,1.79,3.27,1.79,5.74Zm-2.56,0c0-1.91-.35-3.32-1.04-4.25-.69-.93-1.68-1.39-2.97-1.39s-2.29.46-2.99,1.39c-.7.93-1.05,2.34-1.05,4.25s.35,3.25,1.05,4.2c.7.95,1.69,1.43,2.99,1.43s2.26-.47,2.96-1.4c.7-.94,1.05-2.34,1.05-4.23Z" fill="#010101" stroke-width="0"/>
      <path d="m2233.41,1280.32h-2.48v-12.64h-5.06c-.03.73-.05,1.43-.08,2.1-.03.67-.05,1.28-.08,1.83-.05,1.38-.14,2.54-.27,3.47-.13.93-.29,1.68-.48,2.24-.19.58-.41,1.03-.64,1.36-.23.33-.49.62-.78.88-.3.26-.62.46-.96.59-.34.13-.73.2-1.16.2-.14,0-.32,0-.54-.01s-.37-.01-.46-.01v-2.16h.13c.06,0,.12,0,.19.01.07,0,.14.01.23.01.21,0,.42-.03.62-.09s.38-.18.54-.34c.44-.43.76-1.18.96-2.26.2-1.08.35-2.58.43-4.52.04-.72.07-1.57.1-2.56.03-.98.06-1.92.09-2.82h9.7v14.73Z" fill="#010101" stroke-width="0"/>
      <path d="m2248.4,1280.32h-2.48v-12.64h-5.06c-.03.73-.05,1.43-.08,2.1-.03.67-.05,1.28-.08,1.83-.05,1.38-.14,2.54-.27,3.47-.13.93-.29,1.68-.48,2.24-.19.58-.41,1.03-.64,1.36-.23.33-.49.62-.78.88-.3.26-.62.46-.96.59-.34.13-.73.2-1.16.2-.14,0-.32,0-.54-.01s-.37-.01-.46-.01v-2.16h.13c.06,0,.12,0,.19.01.07,0,.14.01.23.01.21,0,.42-.03.62-.09s.38-.18.54-.34c.44-.43.76-1.18.96-2.26.2-1.08.35-2.58.43-4.52.04-.72.07-1.57.1-2.56.03-.98.06-1.92.09-2.82h9.7v14.73Z" fill="#010101" stroke-width="0"/>
    </g>
    <g>
      <path d="m3410.13,790.32c-1.28,0-2.46-.19-3.54-.58-1.08-.39-2.01-.97-2.79-1.73-.78-.77-1.39-1.73-1.82-2.87-.43-1.15-.65-2.47-.65-3.95s.21-2.77.63-3.87c.42-1.1,1.03-2.06,1.83-2.87.78-.79,1.71-1.4,2.78-1.81,1.07-.42,2.27-.62,3.6-.62.66,0,1.28.04,1.85.13.58.09,1.11.2,1.6.33.42.12.85.27,1.3.45.44.18.88.37,1.31.59v2.84h-.21c-.23-.19-.52-.42-.88-.69-.36-.27-.8-.53-1.32-.8-.5-.25-1.05-.45-1.63-.61-.59-.16-1.27-.24-2.04-.24-.83,0-1.63.15-2.37.46-.75.31-1.4.76-1.96,1.37-.55.6-.99,1.36-1.29,2.27-.31.91-.46,1.94-.46,3.08,0,1.21.16,2.25.49,3.13.32.87.77,1.61,1.33,2.21.54.59,1.19,1.03,1.92,1.32.74.3,1.52.45,2.35.45.76,0,1.45-.08,2.1-.25.64-.17,1.21-.38,1.71-.63.48-.25.9-.5,1.25-.75s.63-.48.83-.66h.2v2.8c-.43.18-.84.36-1.22.52-.38.17-.85.33-1.39.49-.57.17-1.1.29-1.59.38-.49.09-1.12.13-1.9.13Z" fill="#010101" stroke-width="0"/>
      <path d="m3430.11,790h-2.48v-11.34h-6.67v11.34h-2.48v-13.26h11.63v13.26Z" fill="#010101" stroke-width="0"/>
      <path d="m3445.81,783.37c0,2.23-.6,3.96-1.79,5.17-1.2,1.22-2.79,1.82-4.77,1.82s-3.66-.63-4.83-1.88c-1.17-1.25-1.76-2.96-1.76-5.11s.6-3.94,1.81-5.17c1.21-1.23,2.8-1.84,4.78-1.84s3.58.61,4.77,1.83c1.19,1.22,1.79,2.95,1.79,5.17Zm-2.56,0c0-1.72-.35-2.99-1.04-3.83s-1.68-1.25-2.97-1.25-2.29.42-2.99,1.25c-.7.83-1.05,2.11-1.05,3.83s.35,2.92,1.05,3.78c.7.86,1.69,1.29,2.99,1.29s2.26-.42,2.96-1.26c.7-.84,1.05-2.11,1.05-3.81Z" fill="#010101" stroke-width="0"/>
      <path d="m3460.71,783.02c0,2.21-.59,3.97-1.76,5.28-1.17,1.31-2.66,1.96-4.45,1.96-.73,0-1.38-.08-1.94-.23-.56-.15-1.14-.38-1.73-.7v5.56h-2.48v-18.15h2.48v1.39c.62-.5,1.3-.92,2.05-1.25.75-.34,1.57-.5,2.46-.5,1.69,0,3,.6,3.95,1.8.95,1.2,1.42,2.82,1.42,4.84Zm-2.56.25c0-1.51-.27-2.69-.8-3.52-.54-.83-1.41-1.25-2.61-1.25-.7,0-1.38.14-2.04.42-.65.28-1.28.64-1.87,1.09v7.52c.65.28,1.21.48,1.67.58.46.1.99.15,1.59.15,1.28,0,2.28-.42,2.99-1.27.71-.85,1.07-2.09,1.07-3.72Z" fill="#010101" stroke-width="0"/>
      <path d="m3474.04,778.69h-5.01v11.3h-2.48v-11.3h-5.01v-1.96h12.5v1.96Z" fill="#010101" stroke-width="0"/>
      <path d="m3485.64,786.33c0,.74-.18,1.37-.54,1.89-.36.51-.82.92-1.38,1.22-.54.29-1.15.51-1.83.65-.69.14-1.37.21-2.06.21-.97,0-1.88-.08-2.74-.26-.86-.17-1.72-.44-2.57-.81v-2.47h.16c.6.5,1.35.89,2.25,1.18.9.29,1.8.43,2.7.43.39,0,.8-.04,1.25-.11.44-.08.82-.19,1.13-.35.4-.22.69-.46.86-.71.17-.25.26-.6.26-1.04,0-.48-.1-.86-.3-1.15-.2-.29-.47-.5-.81-.65s-.73-.23-1.15-.27c-.43-.04-.88-.05-1.35-.05h-1.74v-1.92h1.33c.33,0,.75,0,1.25-.03.5-.02.9-.08,1.2-.18.38-.13.68-.31.91-.54s.34-.63.34-1.18c0-.39-.1-.7-.29-.94s-.43-.42-.72-.56c-.3-.14-.62-.24-.98-.29-.35-.05-.69-.08-1.02-.08-.83,0-1.64.1-2.41.31-.77.21-1.43.52-1.98.93h-.16v-2.41c.63-.2,1.33-.37,2.1-.52.77-.15,1.54-.23,2.31-.23.62,0,1.26.06,1.91.17.65.11,1.26.31,1.84.59.54.27,1,.64,1.37,1.11.37.47.55,1.05.55,1.73,0,.72-.23,1.35-.68,1.89-.45.54-1.05.9-1.8,1.07v.08c.82.25,1.49.64,2.01,1.16.52.52.78,1.22.78,2.1Z" fill="#010101" stroke-width="0"/>
      <path d="m3496.46,788.59c-.2.13-.47.32-.81.56-.34.24-.67.43-.98.58-.44.21-.86.36-1.27.47-.41.11-.98.17-1.72.17-.61,0-1.18-.1-1.73-.31-.54-.21-1.02-.49-1.44-.87-.4-.36-.71-.81-.95-1.35-.24-.53-.36-1.1-.36-1.69,0-.92.21-1.7.65-2.34.43-.65,1.11-1.16,2.04-1.54.83-.34,1.8-.58,2.93-.71,1.12-.13,2.34-.23,3.64-.29v-.43c0-.52-.09-.94-.26-1.26-.18-.32-.42-.57-.74-.74-.32-.18-.7-.3-1.16-.36-.46-.06-.93-.09-1.41-.09-.57,0-1.24.08-2.02.23s-1.55.38-2.32.67h-.14v-2.27c.46-.12,1.11-.25,1.96-.39s1.7-.21,2.53-.21c1.01,0,1.86.07,2.56.21s1.32.4,1.87.77c.54.36.94.83,1.2,1.41.26.58.4,1.28.4,2.11v9.07h-2.47v-1.41Zm0-1.85v-3.68c-.59.05-1.33.11-2.23.2-.9.08-1.63.2-2.18.35-.66.18-1.21.46-1.63.84-.43.38-.65.9-.65,1.57,0,.76.24,1.33.71,1.72.47.39,1.17.58,2.08.58.78,0,1.49-.15,2.12-.46s1.23-.68,1.78-1.12Z" fill="#010101" stroke-width="0"/>
      <path d="m3513.81,790h-2.48v-11.39h-5.06c-.03.66-.05,1.29-.08,1.89-.03.61-.05,1.15-.08,1.64-.05,1.24-.14,2.28-.27,3.12-.13.84-.29,1.51-.48,2.02-.19.52-.41.93-.64,1.22-.23.29-.49.56-.78.8-.3.24-.62.42-.96.53s-.73.18-1.16.18c-.14,0-.32,0-.54-.01s-.37-.01-.46-.01v-1.95h.13c.06,0,.12,0,.19.01.07,0,.14.01.23.01.21,0,.42-.03.62-.08.2-.06.38-.16.54-.31.44-.39.76-1.07.96-2.04s.35-2.33.44-4.07c.03-.65.07-1.42.1-2.3.03-.89.06-1.73.09-2.54h9.7v13.26Z" fill="#010101" stroke-width="0"/>
    </g>
    <g>
      <path d="m2276.34,2105c0,1.41-.27,2.65-.8,3.73-.53,1.08-1.25,1.96-2.15,2.66-1.06.84-2.21,1.43-3.42,1.78s-2.79.52-4.71.52h-8.12v-28.31h7.51c2.02,0,3.53.07,4.53.2,1.01.13,1.97.45,2.9.94,1.01.54,1.75,1.26,2.22,2.14s.7,1.92.7,3.11c0,1.33-.35,2.52-1.05,3.57-.7,1.05-1.68,1.88-2.92,2.47v.15c1.69.46,2.99,1.29,3.92,2.5.92,1.21,1.39,2.72,1.39,4.53Zm-5.25-12.7c0-.68-.11-1.28-.34-1.78-.23-.5-.6-.9-1.1-1.19-.61-.34-1.29-.55-2.03-.63s-1.78-.11-3.1-.11h-3.61v8.29h4.28c1.18,0,2.05-.06,2.6-.18.56-.12,1.13-.37,1.73-.75.57-.37.98-.85,1.22-1.44.24-.6.36-1.33.36-2.21Zm1.33,12.85c0-1.06-.15-1.94-.46-2.63-.3-.69-.92-1.28-1.84-1.76-.6-.32-1.25-.52-1.95-.61-.7-.09-1.7-.13-2.99-.13h-4.28v10.46h3.06c1.65,0,2.95-.08,3.9-.23.95-.15,1.79-.48,2.51-.97.71-.49,1.23-1.05,1.56-1.68.33-.63.49-1.44.49-2.44Z" fill="#010101" stroke-width="0"/>
      <path d="m2296.3,2113.69h-4.39l-5.15-8.02-5.3,8.02h-4.05l7.38-10.53-7.3-10.7h4.39l5.11,7.95,5.25-7.95h4.07l-7.34,10.46,7.34,10.78Z" fill="#010101" stroke-width="0"/>
      <path d="m2316.54,2103.08c0,3.57-.86,6.33-2.58,8.28-1.72,1.95-4.02,2.92-6.88,2.92s-5.27-1-6.97-3.01c-1.69-2.01-2.54-4.74-2.54-8.18s.87-6.3,2.61-8.27c1.74-1.96,4.04-2.95,6.89-2.95s5.16.98,6.88,2.94,2.58,4.72,2.58,8.28Zm-3.69,0c0-2.75-.5-4.79-1.5-6.13-1-1.34-2.43-2-4.28-2s-3.3.67-4.31,2c-1.01,1.34-1.51,3.38-1.51,6.13s.5,4.68,1.51,6.05c1.01,1.38,2.44,2.06,4.31,2.06s3.26-.67,4.27-2.02c1.01-1.35,1.51-3.38,1.51-6.09Z" fill="#010101" stroke-width="0"/>
      <path d="m2338.43,2118.79h-3.33v-5.15h-13.99v5.15h-3.33v-8.14h1.41c1.2-1.98,2.19-4.56,2.96-7.75.77-3.19,1.15-6.67,1.15-10.45h13.02v18.19h2.11v8.14Zm-5.68-8.14v-15.19h-6.08c-.17,3.17-.6,6.06-1.3,8.68-.7,2.62-1.59,4.79-2.65,6.51h10.04Z" fill="#010101" stroke-width="0"/>
    </g>
    <g>
      <path d="m1266.35,1940.02v-17.31h-6.59v-2.32h15.79v2.32h-6.59v17.31h-2.61Z" fill="#010101" stroke-width="0"/>
      <path d="m1289.45,1932.67c0,2.48-.6,4.39-1.79,5.74-1.2,1.35-2.79,2.02-4.77,2.02s-3.66-.7-4.83-2.09c-1.17-1.39-1.76-3.29-1.76-5.68s.6-4.37,1.81-5.74c1.21-1.36,2.8-2.04,4.78-2.04s3.58.68,4.77,2.04c1.2,1.36,1.79,3.27,1.79,5.74Zm-2.56,0c0-1.91-.35-3.32-1.04-4.25-.69-.93-1.68-1.39-2.97-1.39s-2.29.46-2.99,1.39c-.7.93-1.05,2.34-1.05,4.25s.35,3.25,1.05,4.2c.7.95,1.69,1.43,2.99,1.43s2.26-.47,2.96-1.4c.7-.94,1.05-2.34,1.05-4.23Z" fill="#010101" stroke-width="0"/>
      <path d="m1303.07,1940.02h-2.48v-5.75c-.77.25-1.53.45-2.25.59-.73.14-1.45.21-2.16.21-.62,0-1.23-.08-1.83-.24-.59-.16-1.11-.43-1.54-.8s-.76-.84-1-1.42c-.23-.58-.35-1.25-.35-2.04v-5.29h2.48v4c0,.65.03,1.17.08,1.55.05.38.2.75.43,1.11.2.31.51.54.92.71.41.17.95.25,1.61.25.58,0,1.2-.06,1.87-.17.66-.11,1.24-.25,1.73-.41v-7.04h2.48v14.73Z" fill="#010101" stroke-width="0"/>
      <path d="m1318.5,1940.02h-3.08l-5.05-6.79h-1.24v6.79h-2.48v-14.73h2.48v6.41c.64,0,1.19-.14,1.64-.4.45-.26.84-.76,1.15-1.51.1-.22.2-.47.32-.76.12-.29.21-.54.28-.76.39-1.08.92-1.85,1.61-2.29s1.58-.67,2.68-.67h.67v2.14h-.57c-.69,0-1.21.14-1.56.43-.35.29-.64.81-.88,1.56-.25.76-.54,1.36-.87,1.79-.33.43-.7.75-1.11.98l6,7.83Z" fill="#010101" stroke-width="0"/>
      <path d="m1328.33,1938.45c-.2.15-.47.36-.81.63-.34.27-.67.48-.98.64-.44.23-.86.4-1.27.53-.41.12-.98.18-1.72.18-.61,0-1.18-.11-1.73-.34s-1.02-.55-1.44-.96c-.4-.4-.71-.9-.95-1.5-.24-.59-.36-1.22-.36-1.88,0-1.02.21-1.89.65-2.6.43-.72,1.11-1.29,2.04-1.71.83-.38,1.8-.64,2.93-.78,1.12-.14,2.34-.25,3.64-.32v-.47c0-.58-.09-1.05-.26-1.4-.18-.36-.42-.63-.74-.82-.32-.2-.7-.34-1.16-.4-.46-.07-.93-.1-1.41-.1-.57,0-1.24.09-2.02.26-.77.17-1.55.42-2.32.75h-.14v-2.52c.46-.13,1.11-.28,1.96-.43s1.7-.24,2.53-.24c1.01,0,1.86.08,2.56.24s1.32.44,1.87.86c.54.4.94.93,1.2,1.57s.39,1.42.39,2.35v10.07h-2.46v-1.57Zm0-2.06v-4.09c-.59.05-1.33.13-2.23.22-.9.09-1.63.22-2.18.39-.66.2-1.21.51-1.63.93-.43.42-.65,1-.65,1.75,0,.84.24,1.48.71,1.91s1.17.65,2.08.65c.78,0,1.49-.17,2.12-.51.63-.34,1.23-.75,1.78-1.25Z" fill="#010101" stroke-width="0"/>
      <path d="m1354.56,1940.02h-3.08l-5.05-6.79h-1.24v6.79h-2.48v-14.73h2.48v6.41c.64,0,1.19-.14,1.64-.4.45-.26.84-.76,1.15-1.51.1-.22.2-.47.32-.76.12-.29.21-.54.28-.76.39-1.08.92-1.85,1.61-2.29s1.58-.67,2.68-.67h.67v2.14h-.57c-.69,0-1.21.14-1.56.43-.35.29-.64.81-.88,1.56-.25.76-.54,1.36-.87,1.79-.33.43-.7.75-1.11.98l6,7.83Z" fill="#010101" stroke-width="0"/>
      <path d="m1367.79,1940.02h-2.45v-10.98l-6.93,10.98h-2.24v-14.73h2.45v10.81l6.86-10.81h2.32v14.73Z" fill="#010101" stroke-width="0"/>
      <path d="m1383,1940.02h-2.48v-12.59h-6.67v12.59h-2.48v-14.73h11.63v14.73Z" fill="#010101" stroke-width="0"/>
      <path d="m1392.98,1940.37c-2.35,0-4.17-.66-5.46-1.98-1.3-1.32-1.95-3.2-1.95-5.64s.63-4.31,1.89-5.73c1.26-1.42,2.9-2.13,4.93-2.13.91,0,1.72.13,2.43.4s1.32.68,1.85,1.24.93,1.25,1.21,2.06c.28.81.42,1.81.42,2.99v1.34h-10.2c0,1.71.43,3.02,1.29,3.93s2.05,1.36,3.57,1.36c.54,0,1.08-.06,1.6-.18.52-.12,1-.28,1.42-.47.45-.2.83-.4,1.13-.59.31-.19.56-.37.76-.53h.14v2.7c-.29.11-.65.26-1.08.43-.43.17-.82.3-1.16.4-.48.13-.92.23-1.31.3-.39.07-.89.11-1.48.11Zm2.9-9.35c-.02-.67-.1-1.24-.24-1.73s-.34-.89-.61-1.23c-.29-.37-.66-.65-1.11-.84-.45-.19-1.01-.29-1.68-.29s-1.22.1-1.68.3c-.46.2-.88.49-1.26.86-.37.39-.65.82-.84,1.29-.19.47-.32,1.02-.37,1.64h7.79Z" fill="#010101" stroke-width="0"/>
      <path d="m1412.43,1940.02h-2.48v-6.63h-6.67v6.63h-2.48v-14.73h2.48v5.96h6.67v-5.96h2.48v14.73Z" fill="#010101" stroke-width="0"/>
      <path d="m1427.63,1940.02h-2.45v-10.98l-6.93,10.98h-2.24v-14.73h2.45v10.81l6.86-10.81h2.32v14.73Z" fill="#010101" stroke-width="0"/>
      <path d="m1441.88,1940.02h-2.48v-5.84h-2.45l-4.36,5.84h-2.89l4.73-6.06c-1.22-.36-2.12-.9-2.68-1.61-.57-.71-.85-1.67-.85-2.86,0-.73.16-1.37.48-1.92.32-.55.75-1.01,1.3-1.39.44-.3.99-.52,1.66-.67.67-.14,1.41-.22,2.24-.22h5.3v14.73Zm-2.48-7.79v-4.96h-2.69c-.57,0-1.02.03-1.35.09-.33.06-.65.18-.96.36-.32.19-.56.46-.72.79-.16.33-.24.68-.24,1.06,0,.48.05.88.16,1.18.11.3.31.58.6.84.31.26.68.44,1.13.52.44.08.93.12,1.46.12h2.61Z" fill="#010101" stroke-width="0"/>
    </g>
  </g>
  <g id="_Иконки" data-name="Иконки">
    <g>
      <rect x="1560" y="1510" width="70" height="70" rx="9.03" ry="9.03" fill="#f1f4fb" stroke-width="0"/>
      <rect x="1564.52" y="1514.52" width="60.97" height="60.97" rx="4.52" ry="4.52" fill="#9b9da7" stroke-width="0"/>
      <g>
        <path d="m1608.55,1522.42v9.03h-9.03v9.03h-9.03v9.03h-9.03v9.03h-9.03v9.03h45.16v-45.16h-9.03Z" fill="#f1f4fb" stroke-width="0"/>
        <path d="m1595,1521.29h-5.65c-.62,0-1.13.51-1.13,1.13s.51,1.13,1.13,1.13h2.92l-20.65,20.65c-.43.45-.42,1.16.03,1.6.44.42,1.13.42,1.57,0l20.65-20.65v2.92c0,.62.51,1.13,1.13,1.13s1.13-.51,1.13-1.13v-5.65c0-.62-.51-1.13-1.13-1.13Z" fill="#f1f4fb" stroke-width="0"/>
      </g>
    </g>
    <g>
      <rect x="2880" y="710" width="70" height="70" rx="9.03" ry="9.03" fill="#f1f4fb" stroke-width="0"/>
      <rect x="2884.52" y="714.52" width="60.97" height="60.97" rx="4.52" ry="4.52" fill="#9b9da7" stroke-width="0"/>
      <g>
        <path d="m2928.55,722.42v9.03h-9.03v9.03h-9.03v9.03h-9.03v9.03h-9.03v9.03h45.16v-45.16h-9.03Z" fill="#f1f4fb" stroke-width="0"/>
        <path d="m2915,721.29h-5.65c-.62,0-1.13.51-1.13,1.13s.51,1.13,1.13,1.13h2.92l-20.65,20.65c-.43.45-.42,1.16.03,1.6.44.42,1.13.42,1.57,0l20.65-20.65v2.92c0,.62.51,1.13,1.13,1.13s1.13-.51,1.13-1.13v-5.65c0-.62-.51-1.13-1.13-1.13Z" fill="#f1f4fb" stroke-width="0"/>
      </g>
    </g>
    <g>
      <rect x="3740" y="930" width="70" height="70" rx="9.03" ry="9.03" fill="#f1f4fb" stroke-width="0"/>
      <rect x="3744.52" y="934.52" width="60.97" height="60.97" rx="4.52" ry="4.52" fill="#9b9da7" stroke-width="0"/>
      <g>
        <path d="m3788.55,942.42v9.03h-9.03v9.03h-9.03v9.03h-9.03v9.03h-9.03v9.03h45.16v-45.16h-9.03Z" fill="#f1f4fb" stroke-width="0"/>
        <path d="m3775,941.29h-5.65c-.62,0-1.13.51-1.13,1.13s.51,1.13,1.13,1.13h2.92l-20.65,20.65c-.43.45-.42,1.16.03,1.6.44.42,1.13.42,1.57,0l20.65-20.65v2.92c0,.62.51,1.13,1.13,1.13s1.13-.51,1.13-1.13v-5.65c0-.62-.51-1.13-1.13-1.13Z" fill="#f1f4fb" stroke-width="0"/>
      </g>
    </g>
    <g>
      <rect x="2580" y="1130" width="70" height="70" rx="9.03" ry="9.03" fill="#f1f4fb" stroke-width="0"/>
      <rect x="2584.52" y="1134.52" width="60.97" height="60.97" rx="4.52" ry="4.52" fill="#9b9da7" stroke-width="0"/>
      <g>
        <path d="m2628.55,1142.42v9.03h-9.03v9.03h-9.03v9.03h-9.03v9.03h-9.03v9.03h45.16v-45.16h-9.03Z" fill="#f1f4fb" stroke-width="0"/>
        <path d="m2615,1141.29h-5.65c-.62,0-1.13.51-1.13,1.13s.51,1.13,1.13,1.13h2.92l-20.65,20.65c-.43.45-.42,1.16.03,1.6.44.42,1.13.42,1.57,0l20.65-20.65v2.92c0,.62.51,1.13,1.13,1.13s1.13-.51,1.13-1.13v-5.65c0-.62-.51-1.13-1.13-1.13Z" fill="#f1f4fb" stroke-width="0"/>
      </g>
    </g>
    <g>
      <rect x="2540" y="1530" width="70" height="70" rx="9.03" ry="9.03" fill="#f1f4fb" stroke-width="0"/>
      <rect x="2544.52" y="1534.52" width="60.97" height="60.97" rx="4.52" ry="4.52" fill="#9b9da7" stroke-width="0"/>
      <g>
        <path d="m2588.55,1542.42v9.03h-9.03v9.03h-9.03v9.03h-9.03v9.03h-9.03v9.03h45.16v-45.16h-9.03Z" fill="#f1f4fb" stroke-width="0"/>
        <path d="m2551.66,1565.4l5.63.35c.62.04,1.16-.44,1.2-1.06.04-.62-.43-1.16-1.05-1.2l-2.91-.18,21.93-19.34c.46-.42.49-1.14.07-1.6-.41-.45-1.1-.49-1.57-.1l-21.93,19.34.19-2.91c.04-.62-.43-1.16-1.05-1.2s-1.16.44-1.2,1.06l-.36,5.63c-.04.62.43,1.16,1.05,1.2Z" fill="#f1f4fb" stroke-width="0"/>
      </g>
    </g>
    <g>
      <path d="m3797.32,1710h-4.28v70h4.28c6.97,0,12.68-5.7,12.68-12.68v-44.65c0-6.97-5.7-12.68-12.68-12.68Z" fill="#0c4971" stroke-width="0"/>
      <path d="m3805.76,1722.68v44.65c0,6.97-5.7,12.68-12.68,12.68h-40.41c-6.97,0-12.67-5.7-12.67-12.68v-44.65c0-6.97,5.7-12.68,12.68-12.68h40.41c6.97,0,12.68,5.7,12.68,12.68Z" fill="#0c69a8" stroke-width="0"/>
      <path d="m3765.7,1733.24h-2.83l2.83,17.89v20.75c.54.31,1.19.45,1.87.34,1.38-.22,2.37-1.45,2.37-2.84v-31.91c0-2.32-1.91-4.23-4.24-4.23Z" fill="#dff1fd" stroke-width="0"/>
      <path d="m3767.21,1737.47v32.02c0,1.04-.58,1.95-1.44,2.44-.86-.49-1.44-1.4-1.44-2.44v-18.33h-5.61v18.28c0,1.52-1.19,2.83-2.71,2.88-1.59.05-2.9-1.23-2.9-2.82v-32.03c0-2.32,1.9-4.22,4.22-4.22h5.64c2.32,0,4.23,1.9,4.23,4.23Z" fill="#fff" stroke-width="0"/>
      <path d="m3761.6,1717.75v11.26c3.08-.04,5.56-2.55,5.56-5.63s-2.48-5.59-5.56-5.63Z" fill="#dff1fd" stroke-width="0"/>
      <path d="m3761.62,1717.75c1.52.08,2.74,2.57,2.74,5.63s-1.22,5.55-2.74,5.63c-.03,0-.05,0-.07,0-3.11,0-5.63-2.52-5.63-5.63s2.52-5.63,5.63-5.63c.02,0,.05,0,.07,0Z" fill="#fff" stroke-width="0"/>
      <path d="m3787.03,1717.75v11.26c3.08-.04,5.56-2.55,5.56-5.63s-2.48-5.59-5.56-5.63Z" fill="#dff1fd" stroke-width="0"/>
      <path d="m3786.97,1717.75c1.52.08,2.74,2.57,2.74,5.63s-1.22,5.55-2.74,5.63c-.03,0-.05,0-.07,0-3.11,0-5.63-2.52-5.63-5.63s2.52-5.63,5.63-5.63c.02,0,.05,0,.07,0Z" fill="#fff" stroke-width="0"/>
      <path d="m3794,1736.6c-.4-1.91-2.11-3.36-4.13-3.36h-1.08l5.16,23.52h4.37l-4.31-20.16Z" fill="#dff1fd" stroke-width="0"/>
      <path d="m3794,1756.76v13.03c0,1.36-1.1,2.46-2.46,2.46s-2.46-1.1-2.46-2.46v-13.03h-4.24v13.03c0,1.36-1.1,2.46-2.46,2.46s-2.46-1.1-2.46-2.46v-13.03h-4.2l4.31-20.16c.4-1.91,2.1-3.36,4.13-3.36h4.69c1.27,0,2.34,1.45,2.59,3.36l2.56,20.16Z" fill="#fff" stroke-width="0"/>
    </g>
  </g>
</svg>